<svg xmlns="http://www.w3.org/2000/svg" viewBox="0 0 16 19"><title>Artboard 1</title><path d="M8,5.888c-1.51-1.6-8-2.636-8,4.979,0,4.7,5.733,9.913,8,7.54H8c2.266,2.373,8-2.835,8-7.54C16,3.252,9.51,4.284,8,5.888Zm5.734,6.775a8.256,8.256,0,0,1-3.527,4.454c1.749-2.163,2.826-5.824,1.784-8.663A10.91,10.91,0,0,0,10.937,6.29C12.991,7.005,14.684,8.862,13.734,12.663Zm-6.3-8.877a4.607,4.607,0,0,0,.695-.232A5.881,5.881,0,0,0,8,4.75h.381c.332-1.61,1.578-3.488,3.24-3.488A1.153,1.153,0,0,0,10.394,0,3.928,3.928,0,0,0,8.8,1.7a7.056,7.056,0,0,0-.638,1.7,3.459,3.459,0,0,0-.142-.567A4.614,4.614,0,0,0,2.532.144,4.78,4.78,0,0,0,1.783.4a3.567,3.567,0,0,0,.162.7A4.613,4.613,0,0,0,7.434,3.786Z" fill="#fff"/></svg>