<?xml version="1.0" encoding="utf-8"?>
<!-- Generator: Adobe Illustrator 24.0.3, SVG Export Plug-In . SVG Version: 6.00 Build 0)  -->
<svg version="1.1" xmlns="http://www.w3.org/2000/svg" xmlns:xlink="http://www.w3.org/1999/xlink" x="0px" y="0px"
	 viewBox="0 0 300 100" style="enable-background:new 0 0 300 100;" xml:space="preserve">
<style type="text/css">
	.st0{display:none;}
	.st1{display:inline;}
	.st2{display:inline;fill:#FFFFFF;}
	.st3{font-family:'Raleway-Bold';}
	.st4{font-size:21px;}
	.st5{fill:#FFFFFF;}
	.st6{opacity:0.5;}
	.st7{fill:none;}
</style>
<g id="bg" class="st0">
	<rect class="st1" width="300" height="100"/>
</g>
<g id="text" class="st0">
	<text transform="matrix(1 0 0 1 1.7737 87.6289)" class="st2 st3 st4">Learning Technology &amp; Media</text>
</g>
<g id="logo">
	<g>
		<g>
			<path class="st5" d="M166.5,10.7c1.5,1.8,2.3,4.3,2.2,6.7c0,0.5,0,0.8,0,1.2h-12.3c0.5,2,2.3,3.5,4.5,3.5c1.7,0,3.2-0.7,4.3-1.8
				l2.7,2.7c-0.8,1-2,1.7-3.2,2.2c-1.3,0.5-2.7,0.8-4.2,0.8c-1.7,0-3.3-0.3-4.8-1c-1.3-0.7-2.3-1.8-3.2-3c-0.8-1.3-1.2-3-1.2-4.5
				c0-1.7,0.3-3.2,1.2-4.7c0.7-1.3,1.8-2.3,3.2-3c1.3-1,2.8-1.3,4.5-1.3C162.5,8.2,164.8,9,166.5,10.7z M164,15.7c0-1-0.3-2-1.2-2.7
				c-0.7-0.7-1.7-1-2.7-1c-1,0-2,0.3-2.7,1c-0.7,0.7-1.2,1.7-1.3,2.7H164z"/>
		</g>
		<g>
			<polygon class="st5" points="169,8.5 174.5,8.5 177.7,13.7 181,8.5 186.5,8.5 181,16.8 186.8,25.7 181.2,25.7 177.7,20 174,25.7 
				168.5,25.7 174.5,16.8 			"/>
		</g>
		<g>
			<path class="st5" d="M199.8,24.7c-0.7,0.3-1.3,0.7-2.2,0.8c-0.8,0.2-1.5,0.3-2.3,0.3c-1.5,0-2.8-0.5-3.8-1.3
				c-1-1-1.7-2.5-1.5-3.8v-8h-2.3V9.3h2.3V4.5h4.8v4.7h4.7v3.3h-4.7v7.2c0,1.3,0.5,2,1.5,2c0.8,0,1.7-0.2,2.3-0.7L199.8,24.7z"/>
		</g>
		<g>
			<path class="st5" d="M216.2,10.7c1.5,1.8,2.3,4.3,2.2,6.7c0,0.5,0,0.8,0,1.2H206c0.2,1,0.8,1.8,1.7,2.5c0.8,0.7,1.8,1,2.8,0.8
				c1.7,0,3.2-0.7,4.3-1.8l2.5,2.7c-0.8,1-2,1.7-3.2,2.2c-1.3,0.5-2.7,0.8-4.2,0.8c-1.7,0-3.3-0.3-4.8-1c-1.3-0.7-2.3-1.8-3.2-3
				c-0.8-1.3-1.2-3-1.2-4.5c0-1.7,0.3-3.2,1.2-4.7c0.7-1.3,1.8-2.3,3.2-3c1.5-0.8,3.2-1.2,4.7-1.2C212.3,8.2,214.5,9,216.2,10.7z
				 M213.7,15.7c0-1-0.3-2-1.2-2.7c-0.7-0.7-1.7-1-2.7-1c-1,0-2,0.3-2.7,1c-0.7,0.7-1.2,1.7-1.3,2.7H213.7z"/>
		</g>
		<g>
			<path class="st5" d="M236.8,10.2c1.2,1.3,1.8,3,1.7,4.8v10.8h-4.8v-9.5c0-1-0.3-1.8-0.8-2.5c-0.7-0.7-1.5-1-2.5-1
				c-1.2,0-2.2,0.5-2.8,1.3c-0.7,0.8-1,2-1,3.2v8.5h-5V8.5h5v3c1.2-2.2,3.5-3.3,6-3.2C234,8.2,235.7,8.8,236.8,10.2z"/>
		</g>
		<g>
			<path class="st5" d="M259.5,2v23.7h-4.8v-2.5c-0.5,0.8-1.3,1.5-2.3,2c-1,0.5-2,0.7-3,0.7c-1.5,0-3-0.3-4.3-1
				c-1.2-0.7-2.2-1.8-2.8-3c-0.7-1.5-1-3-1-4.7c0-1.5,0.3-3.2,1-4.5c0.7-1.3,1.7-2.3,2.8-3c1.3-0.8,2.7-1.2,4.2-1.2
				c2.2-0.2,4.3,1,5.5,2.7V2H259.5z M253.5,20.5c0.8-1,1.2-2.2,1.2-3.5c0-1.3-0.3-2.5-1.2-3.5c-1.7-1.7-4.3-1.8-6-0.2l-0.2,0.2
				c-0.8,1-1.3,2.2-1.2,3.5c0,1.3,0.3,2.5,1.2,3.5C248.8,22.3,251.5,22.3,253.5,20.5C253.3,20.7,253.3,20.7,253.5,20.5z"/>
		</g>
		<g>
			<path class="st5" d="M277.8,10.7c1.5,1.8,2.3,4.3,2.2,6.7c0,0.5,0,0.8,0,1.2h-12.3c0.2,1,0.8,1.8,1.7,2.5c0.8,0.7,1.8,1,2.8,0.8
				c0.8,0,1.7-0.2,2.3-0.5c0.8-0.3,1.5-0.8,2-1.3l2.7,2.7c-0.8,1-2,1.7-3.2,2.2c-1.3,0.5-2.7,0.8-4.2,0.8c-1.7,0-3.3-0.3-4.8-1
				c-1.3-0.7-2.3-1.8-3.2-3c-0.8-1.3-1.2-3-1.2-4.5c0-1.7,0.3-3.2,1.2-4.7c0.7-1.3,1.8-2.3,3.2-3c1.3-0.8,3-1.2,4.7-1.2
				C274,8.2,276.2,9,277.8,10.7z M275.3,15.7c0-1-0.3-2-1.2-2.7c-0.7-0.7-1.7-1-2.7-1c-1,0-2,0.3-2.7,1c-0.7,0.7-1.2,1.7-1.3,2.7
				H275.3z"/>
		</g>
		<g>
			<path class="st5" d="M300,2v23.7h-4.8v-2.5c-0.5,0.8-1.3,1.5-2.3,2s-2,0.7-3.2,0.7c-1.5,0-3-0.3-4.2-1c-1.2-0.7-2.2-1.8-2.8-3
				c-0.7-1.5-1-3-1-4.7c0-1.5,0.3-3.2,1-4.5c0.7-1.3,1.7-2.3,2.8-3c1.3-0.7,2.7-1.2,4.2-1.2c2.2-0.2,4.2,0.8,5.5,2.7V2H300z
				 M294,20.5c0.8-1,1.2-2.2,1.2-3.5c0-1.3-0.3-2.5-1.2-3.5c-1.7-1.7-4.3-1.8-6-0.2l-0.2,0.2c-0.8,1-1.3,2.2-1.2,3.5
				c0,1.3,0.3,2.5,1.2,3.5c1.7,1.7,4.3,1.8,6,0.2C293.8,20.7,293.8,20.7,294,20.5L294,20.5z"/>
		</g>
		<g>
			<path class="st5" d="M160.2,36.2c-1.2,0-2.2,0.3-3.2,0.8c-1,0.5-1.7,1.3-2.2,2.3c-0.5,1-0.8,2.2-0.8,3.3s0.3,2.3,0.8,3.3
				c0.5,1,1.3,1.8,2.2,2.3c1,0.5,2.2,0.8,3.2,0.8c1,0,2-0.2,3-0.5c0.8-0.3,1.7-1,2.3-1.7l1.2,1.3c-0.8,0.8-1.7,1.7-2.8,2
				c-1.2,0.5-2.5,0.8-3.8,0.7c-1.5,0-3-0.3-4.3-1c-1.2-0.7-2.3-1.7-3-3c-1.5-2.7-1.5-6,0-8.7c0.7-1.3,1.7-2.3,3-3
				c1.3-0.7,2.8-1,4.3-1c1.2,0,2.5,0.2,3.5,0.7c1,0.3,2,1,2.8,1.8l-1.2,1.5C163.8,36.8,162,36.2,160.2,36.2z"/>
		</g>
		<g>
			<path class="st5" d="M181.3,51v-2.7c-0.7,1-1.5,1.7-2.7,2.2c-1.2,0.5-2.3,0.7-3.7,0.7c-1,0-2-0.2-3-0.7c-0.8-0.3-1.5-1-2-1.8
				c-0.5-0.8-0.7-1.7-0.7-2.7c0-1.3,0.5-2.7,1.7-3.3c1.3-0.8,3-1.3,4.7-1.2h5.7v-1.3c0-1.2-0.3-2.3-1.2-3c-1-0.8-2.2-1.2-3.5-1
				c-2,0-3.8,0.8-5.3,2l-0.8-1.5c1-0.7,2-1.3,3.2-1.7c1.2-0.3,2.3-0.5,3.5-0.5c1.7-0.2,3.3,0.5,4.7,1.5c1.2,1.2,1.8,2.7,1.7,4.2v11
				h-2.2V51z M179.2,48.3c1-0.7,1.8-1.7,2.2-3V43H176c-1.2,0-2.3,0.2-3.3,0.7c-0.8,0.5-1.2,1.3-1.2,2.2c0,1,0.3,1.8,1.2,2.3
				c0.8,0.7,1.8,1,3,0.8C176.8,49.3,178.2,49,179.2,48.3z"/>
		</g>
		<g>
			<path class="st5" d="M215.5,36c1.2,1.3,1.8,3,1.7,4.8V51H215v-9.8c0.2-1.3-0.3-2.7-1.3-3.7c-1-0.8-2.2-1.3-3.5-1.3
				c-1.7,0-3.2,0.7-4.2,1.8c-1,1.3-1.7,3-1.5,4.7v8.2h-2.2v-9.7c0-1.3-0.3-2.7-1.3-3.7c-1-0.8-2.2-1.3-3.5-1.3
				c-1.7,0-3.2,0.7-4.2,1.8c-1,1.3-1.7,3-1.5,4.7v8.2h-2.2V34.2h2.2v4.2c0.5-1.2,1.3-2.3,2.5-3c1.2-0.7,2.7-1,4-1
				c1.5,0,2.8,0.3,4,1.2c1,0.8,1.8,2,2,3.3c0.3-1.3,1.3-2.5,2.5-3.3c1.3-0.8,2.7-1.2,4.2-1.2C212.7,34.2,214.3,34.8,215.5,36z"/>
		</g>
		<g>
			<path class="st5" d="M236.5,35.3c1.2,0.7,2.2,1.7,2.8,3s1,2.8,1,4.3s-0.3,3-1,4.3c-0.7,1.2-1.7,2.3-2.8,3c-1.3,0.7-2.7,1-4.2,1
				c-1.3,0-2.8-0.3-4-1c-1.2-0.7-2-1.7-2.7-2.8v10h-2.2V34.3h2.2v3.8c0.5-1.2,1.5-2.2,2.7-2.8c1.2-0.7,2.7-1,4-1
				C233.8,34.3,235.2,34.7,236.5,35.3z M235.2,48.5c1-0.5,1.7-1.3,2.2-2.3c1-2.2,1-4.7,0-6.8c-0.5-1-1.3-1.8-2.2-2.3
				c-2-1.2-4.5-1.2-6.5,0c-1,0.5-1.7,1.3-2.2,2.3c-0.5,1-0.8,2.2-0.8,3.3s0.3,2.3,0.8,3.3s1.3,1.8,2.2,2.3
				C230.7,49.5,233.2,49.5,235.2,48.5L235.2,48.5z"/>
		</g>
		<g>
			<path class="st5" d="M259.7,34.3V51h-2.2v-4c-0.5,1.2-1.3,2.3-2.5,3s-2.5,1-4,1c-1.7,0.2-3.3-0.5-4.7-1.7c-1.2-1.3-1.8-3-1.7-4.8
				V34.3h2.2v9.8c0,1.3,0.3,2.7,1.3,3.7c1,0.8,2.2,1.3,3.5,1.3c1.7,0,3.2-0.7,4.2-1.8c1-1.3,1.7-3,1.5-4.7v-8.2L259.7,34.3z"/>
		</g>
		<g>
			<path class="st5" d="M272.8,36.3c-0.8-0.2-1.5-0.3-2.3-0.3c-0.8,0-1.8,0.2-2.5,0.7c-0.7,0.3-1,1.2-1,1.8c0,0.5,0.2,1,0.5,1.3
				c0.3,0.3,0.8,0.7,1.3,0.8c0.7,0.3,1.5,0.5,2.2,0.8c1,0.3,1.8,0.7,2.8,1c0.7,0.3,1.3,0.8,1.8,1.5s0.8,1.7,0.8,2.5
				c0,1.3-0.5,2.7-1.7,3.5c-1.3,0.8-2.8,1.3-4.3,1.2c-1.2,0-2.3-0.2-3.5-0.7c-1-0.3-2-1-2.8-1.7l0.8-1.5c0.8,0.7,1.7,1.2,2.5,1.5
				c1,0.3,2,0.5,3,0.5s2-0.2,2.8-0.7c0.7-0.5,1.2-1.2,1-2c0-0.5-0.2-1.2-0.5-1.5c-0.3-0.3-0.8-0.7-1.3-1c-0.5-0.2-1.3-0.5-2.2-0.8
				c-1-0.3-1.8-0.7-2.7-1c-0.7-0.3-1.3-0.8-1.8-1.3c-0.5-0.7-0.8-1.5-0.7-2.3c0-1.3,0.5-2.5,1.7-3.3s2.7-1.2,4.2-1.2
				c1,0,1.8,0.2,2.8,0.3c0.8,0.2,1.7,0.5,2.3,1l-0.8,1.7C274.2,36.8,273.5,36.5,272.8,36.3z"/>
		</g>
		<g>
			<polygon class="st5" points="98.2,24.7 106.3,32.8 109.7,29 98.2,16 			"/>
		</g>
		<g>
			<path class="st5" d="M143,17.2l-6,6v-8.8L122.7,0h-15v3.7l-9.3,4.8v4.8c2.8,0,7.5,0.2,7.5,0.2L119.5,29l0,0l-9.7,11l2,11
				c0,0,25-0.3,25.3-0.2l7.3-32.2L143,17.2z M135.8,29L135.8,29l-13.7,15.5c0,0-9.8,0.2-9.8,0L126,29l-13.7-15.5c0-0.2,9.8,0,9.8,0
				L135.8,29z"/>
		</g>
		<g>
			<path class="st5" d="M31.3,4.7v32.7c0,6.8-3.8,14.2-15.7,14.2C5.2,51.5,0,46,0,37.3V4.7h9.7v32c0,5.7,2.3,7.8,6,7.8
				c4.2,0,6.2-2.8,6.2-7.8v-32H31.3z"/>
		</g>
		<g>
			<polygon class="st5" points="35.5,4.7 45.3,4.7 51.3,37 51.3,37 58.7,4.8 70,4.8 76.8,37 77,37 82.7,4.8 92.2,4.8 82,50.8 
				71.3,50.8 64.2,17.2 64,17.2 56.2,50.8 45.7,50.8 			"/>
		</g>
	</g>
	<g class="st6">
		<line class="st7" x1="50" y1="68.2" x2="250" y2="68.2"/>
		<polygon class="st5" points="50,68.2 74.9,68.1 100,68.1 150,68.1 200,68.1 225.1,68.1 250,68.2 225.1,68.4 200,68.4 150,68.4 
			100,68.4 74.9,68.4 		"/>
	</g>
	<g>
		<path class="st5" d="M0,94.9V79.7h3v12.6h7.8v2.6H0z"/>
		<path class="st5" d="M17,95.1c-0.9,0-1.7-0.2-2.4-0.5c-0.7-0.3-1.3-0.7-1.9-1.3c-0.5-0.5-0.9-1.1-1.2-1.8
			c-0.3-0.7-0.4-1.4-0.4-2.2c0-0.8,0.1-1.6,0.4-2.3c0.3-0.7,0.7-1.3,1.2-1.9c0.5-0.5,1.1-1,1.9-1.3c0.7-0.3,1.6-0.5,2.5-0.5
			c0.9,0,1.7,0.2,2.5,0.5c0.7,0.3,1.3,0.7,1.8,1.3c0.5,0.5,0.9,1.1,1.2,1.8c0.3,0.7,0.4,1.4,0.4,2.2c0,0.2,0,0.4,0,0.5
			c0,0.2,0,0.3-0.1,0.4h-8.7c0,0.4,0.1,0.8,0.3,1.2s0.4,0.6,0.7,0.9c0.3,0.2,0.6,0.4,0.9,0.6s0.7,0.2,1.1,0.2c0.6,0,1.1-0.1,1.6-0.4
			c0.5-0.3,0.9-0.6,1-1.1l2.5,0.7c-0.4,0.9-1.1,1.6-2,2.1C19.3,94.9,18.2,95.1,17,95.1z M19.9,88.4c-0.1-0.8-0.4-1.5-0.9-2
			c-0.5-0.5-1.2-0.8-2-0.8c-0.4,0-0.7,0.1-1.1,0.2c-0.3,0.1-0.6,0.3-0.9,0.6c-0.3,0.2-0.5,0.5-0.6,0.9c-0.2,0.3-0.3,0.7-0.3,1.1
			H19.9z"/>
		<path class="st5" d="M27.7,95.1c-0.5,0-1-0.1-1.5-0.3c-0.5-0.2-0.9-0.4-1.2-0.7c-0.3-0.3-0.6-0.7-0.8-1.1
			c-0.2-0.4-0.3-0.9-0.3-1.4c0-0.5,0.1-1,0.4-1.5c0.2-0.4,0.6-0.8,1-1.1c0.4-0.3,0.9-0.6,1.5-0.7c0.6-0.2,1.2-0.3,1.9-0.3
			c0.5,0,1,0,1.5,0.1c0.5,0.1,0.9,0.2,1.3,0.4v-0.6c0-0.7-0.2-1.3-0.6-1.7c-0.4-0.4-1-0.6-1.9-0.6c-0.6,0-1.2,0.1-1.8,0.3
			s-1.2,0.5-1.8,0.9L24.5,85c1.4-1,3-1.4,4.7-1.4c1.6,0,2.9,0.4,3.8,1.2c0.9,0.8,1.3,1.9,1.3,3.4v3.5c0,0.3,0.1,0.5,0.2,0.6
			c0.1,0.1,0.3,0.2,0.5,0.2v2.4c-0.5,0.1-0.9,0.2-1.3,0.2c-0.5,0-1-0.1-1.3-0.4s-0.5-0.6-0.5-1l-0.1-0.6c-0.5,0.7-1.1,1.2-1.8,1.5
			C29.2,95,28.5,95.1,27.7,95.1z M28.5,93c0.5,0,0.9-0.1,1.4-0.3c0.4-0.2,0.8-0.4,1-0.7c0.3-0.2,0.5-0.5,0.5-0.8V90
			c-0.3-0.1-0.7-0.2-1.1-0.3c-0.4-0.1-0.8-0.1-1.2-0.1c-0.7,0-1.3,0.2-1.8,0.5c-0.5,0.3-0.7,0.8-0.7,1.3c0,0.5,0.2,0.9,0.6,1.2
			C27.5,92.9,27.9,93,28.5,93z"/>
		<path class="st5" d="M43.6,86.2c-0.9,0-1.6,0.2-2.3,0.5c-0.7,0.3-1.2,0.8-1.5,1.4v6.8h-2.9V83.7h2.6v2.4c0.2-0.4,0.4-0.7,0.7-1
			c0.3-0.3,0.6-0.6,0.9-0.8c0.3-0.2,0.6-0.4,1-0.5c0.3-0.1,0.6-0.2,0.9-0.2c0.2,0,0.3,0,0.4,0s0.2,0,0.2,0V86.2z"/>
		<path class="st5" d="M55.6,94.9h-2.9v-6.3c0-0.9-0.2-1.6-0.5-2C52,86.3,51.5,86,51,86c-0.3,0-0.6,0.1-0.9,0.2s-0.6,0.3-0.8,0.5
			c-0.3,0.2-0.5,0.5-0.7,0.7c-0.2,0.3-0.4,0.6-0.5,0.9v6.6h-2.9V83.7h2.6v2.1c0.4-0.7,1-1.3,1.8-1.7c0.8-0.4,1.7-0.6,2.7-0.6
			c0.7,0,1.3,0.1,1.7,0.4c0.4,0.3,0.8,0.6,1,1c0.2,0.4,0.4,0.9,0.5,1.4c0.1,0.5,0.1,1.1,0.1,1.6V94.9z"/>
		<path class="st5" d="M58.1,82.1v-2.8H61v2.8H58.1z M58.1,94.9V83.7H61v11.2H58.1z"/>
		<path class="st5" d="M74,94.9h-2.9v-6.3c0-0.9-0.2-1.6-0.5-2c-0.3-0.4-0.7-0.6-1.3-0.6c-0.3,0-0.6,0.1-0.9,0.2s-0.6,0.3-0.8,0.5
			c-0.3,0.2-0.5,0.5-0.7,0.7c-0.2,0.3-0.4,0.6-0.5,0.9v6.6h-2.9V83.7h2.6v2.1c0.4-0.7,1-1.3,1.8-1.7c0.8-0.4,1.7-0.6,2.7-0.6
			c0.7,0,1.3,0.1,1.7,0.4c0.4,0.3,0.8,0.6,1,1s0.4,0.9,0.5,1.4c0.1,0.5,0.1,1.1,0.1,1.6V94.9z"/>
		<path class="st5" d="M80.9,95c-0.8,0-1.4-0.2-2.1-0.5c-0.6-0.3-1.1-0.7-1.6-1.2c-0.5-0.5-0.8-1.1-1-1.8c-0.2-0.7-0.4-1.4-0.4-2.2
			c0-0.8,0.1-1.6,0.4-2.3c0.3-0.7,0.6-1.3,1.1-1.8c0.5-0.5,1-0.9,1.6-1.2s1.3-0.5,2.1-0.5c0.9,0,1.6,0.2,2.3,0.6
			c0.7,0.4,1.2,0.9,1.6,1.6v-2h2.5v10.7c0,0.8-0.2,1.6-0.5,2.2c-0.3,0.7-0.7,1.2-1.3,1.7c-0.5,0.5-1.2,0.8-2,1
			c-0.8,0.2-1.6,0.4-2.5,0.4c-1.2,0-2.3-0.2-3.1-0.6c-0.8-0.4-1.6-1-2.2-1.7l1.6-1.5c0.4,0.5,1,0.9,1.6,1.2c0.7,0.3,1.3,0.4,2.1,0.4
			c0.4,0,0.9-0.1,1.3-0.2c0.4-0.1,0.8-0.3,1.1-0.6s0.6-0.6,0.7-1c0.2-0.4,0.3-0.9,0.3-1.4V93c-0.4,0.6-0.9,1.1-1.6,1.5
			C82.4,94.8,81.7,95,80.9,95z M81.9,92.7c0.3,0,0.6,0,0.9-0.2c0.3-0.1,0.5-0.2,0.8-0.4c0.2-0.2,0.5-0.4,0.6-0.6
			c0.2-0.2,0.3-0.5,0.4-0.7v-2.7c-0.3-0.7-0.7-1.2-1.2-1.6c-0.5-0.4-1.1-0.6-1.7-0.6c-0.4,0-0.8,0.1-1.2,0.3
			c-0.4,0.2-0.7,0.5-0.9,0.8c-0.3,0.3-0.5,0.7-0.6,1.1c-0.1,0.4-0.2,0.8-0.2,1.3c0,0.5,0.1,0.9,0.2,1.3c0.2,0.4,0.4,0.7,0.7,1
			c0.3,0.3,0.6,0.5,1,0.7C81,92.6,81.4,92.7,81.9,92.7z"/>
		<path class="st5" d="M106.3,82.3h-4.9v12.6h-2.9V82.3h-4.9v-2.6h12.7V82.3z"/>
		<path class="st5" d="M110.6,95.1c-0.9,0-1.7-0.2-2.4-0.5c-0.7-0.3-1.3-0.7-1.9-1.3s-0.9-1.1-1.2-1.8c-0.3-0.7-0.4-1.4-0.4-2.2
			c0-0.8,0.1-1.6,0.4-2.3c0.3-0.7,0.7-1.3,1.2-1.9c0.5-0.5,1.1-1,1.9-1.3c0.7-0.3,1.6-0.5,2.5-0.5c0.9,0,1.7,0.2,2.5,0.5
			c0.7,0.3,1.3,0.7,1.8,1.3c0.5,0.5,0.9,1.1,1.2,1.8c0.3,0.7,0.4,1.4,0.4,2.2c0,0.2,0,0.4,0,0.5c0,0.2,0,0.3-0.1,0.4h-8.7
			c0,0.4,0.1,0.8,0.3,1.2s0.4,0.6,0.7,0.9c0.3,0.2,0.6,0.4,0.9,0.6c0.3,0.1,0.7,0.2,1.1,0.2c0.6,0,1.1-0.1,1.6-0.4
			c0.5-0.3,0.9-0.6,1-1.1l2.5,0.7c-0.4,0.9-1.1,1.6-2,2.1C113,94.9,111.9,95.1,110.6,95.1z M113.5,88.4c-0.1-0.8-0.4-1.5-0.9-2
			c-0.5-0.5-1.2-0.8-2-0.8c-0.4,0-0.7,0.1-1.1,0.2c-0.3,0.1-0.6,0.3-0.9,0.6c-0.3,0.2-0.5,0.5-0.6,0.9c-0.2,0.3-0.3,0.7-0.3,1.1
			H113.5z"/>
		<path class="st5" d="M117.6,89.3c0-0.8,0.1-1.5,0.4-2.2c0.3-0.7,0.7-1.3,1.2-1.8c0.5-0.5,1.1-0.9,1.9-1.3c0.7-0.3,1.5-0.5,2.5-0.5
			c1.2,0,2.3,0.3,3.1,0.8c0.9,0.5,1.5,1.2,1.9,2.1l-2.8,0.9c-0.2-0.4-0.6-0.7-1-1c-0.4-0.2-0.8-0.3-1.3-0.3c-0.4,0-0.8,0.1-1.2,0.2
			c-0.4,0.2-0.7,0.4-0.9,0.7c-0.3,0.3-0.5,0.6-0.6,1.1c-0.1,0.4-0.2,0.9-0.2,1.4c0,0.5,0.1,1,0.2,1.4c0.2,0.4,0.4,0.8,0.6,1.1
			c0.3,0.3,0.6,0.5,0.9,0.7c0.4,0.2,0.7,0.2,1.1,0.2c0.5,0,1-0.1,1.4-0.4c0.4-0.3,0.7-0.6,0.9-0.9l2.8,0.9c-0.4,0.9-1,1.6-1.9,2.1
			c-0.9,0.5-1.9,0.8-3.2,0.8c-0.9,0-1.7-0.2-2.5-0.5s-1.3-0.7-1.9-1.3c-0.5-0.5-0.9-1.2-1.2-1.9C117.7,90.8,117.6,90.1,117.6,89.3z"
			/>
		<path class="st5" d="M140.8,94.9h-2.9v-6.3c0-0.9-0.2-1.5-0.5-2c-0.3-0.4-0.8-0.6-1.4-0.6c-0.3,0-0.5,0.1-0.8,0.2
			c-0.3,0.1-0.6,0.3-0.8,0.5c-0.3,0.2-0.5,0.5-0.7,0.7c-0.2,0.3-0.4,0.6-0.5,0.9v6.6h-2.9V79.3h2.9v6.5c0.4-0.7,1-1.3,1.7-1.7
			c0.7-0.4,1.5-0.6,2.3-0.6c0.7,0,1.3,0.1,1.8,0.4c0.5,0.2,0.8,0.6,1.1,1s0.4,0.9,0.5,1.4c0.1,0.5,0.1,1.1,0.1,1.6V94.9z"/>
		<path class="st5" d="M153.7,94.9h-2.9v-6.3c0-0.9-0.2-1.6-0.5-2c-0.3-0.4-0.7-0.6-1.3-0.6c-0.3,0-0.6,0.1-0.9,0.2
			s-0.6,0.3-0.8,0.5c-0.3,0.2-0.5,0.5-0.7,0.7c-0.2,0.3-0.4,0.6-0.5,0.9v6.6h-2.9V83.7h2.6v2.1c0.4-0.7,1-1.3,1.8-1.7
			c0.8-0.4,1.7-0.6,2.7-0.6c0.7,0,1.3,0.1,1.7,0.4c0.4,0.3,0.8,0.6,1,1c0.2,0.4,0.4,0.9,0.5,1.4c0.1,0.5,0.1,1.1,0.1,1.6V94.9z"/>
		<path class="st5" d="M161.4,95.1c-0.9,0-1.7-0.2-2.5-0.5s-1.3-0.7-1.9-1.3c-0.5-0.5-0.9-1.2-1.2-1.9c-0.3-0.7-0.4-1.4-0.4-2.2
			c0-0.8,0.1-1.5,0.4-2.2c0.3-0.7,0.7-1.3,1.2-1.9c0.5-0.5,1.1-1,1.9-1.3c0.7-0.3,1.5-0.5,2.5-0.5c0.9,0,1.7,0.2,2.5,0.5
			c0.7,0.3,1.3,0.7,1.8,1.3c0.5,0.5,0.9,1.2,1.2,1.9c0.3,0.7,0.4,1.4,0.4,2.2c0,0.8-0.1,1.5-0.4,2.2c-0.3,0.7-0.7,1.3-1.2,1.9
			c-0.5,0.5-1.1,1-1.8,1.3S162.3,95.1,161.4,95.1z M158.4,89.3c0,0.5,0.1,1,0.2,1.4c0.2,0.4,0.4,0.8,0.6,1.1
			c0.3,0.3,0.6,0.5,0.9,0.7c0.4,0.2,0.7,0.2,1.2,0.2c0.4,0,0.8-0.1,1.2-0.2c0.4-0.2,0.7-0.4,0.9-0.7s0.5-0.7,0.6-1.1
			c0.1-0.4,0.2-0.9,0.2-1.4c0-0.5-0.1-0.9-0.2-1.3c-0.2-0.4-0.4-0.8-0.6-1.1s-0.6-0.5-0.9-0.7c-0.4-0.2-0.7-0.2-1.2-0.2
			c-0.4,0-0.8,0.1-1.2,0.3c-0.4,0.2-0.7,0.4-0.9,0.7c-0.3,0.3-0.5,0.7-0.6,1.1C158.5,88.4,158.4,88.9,158.4,89.3z"/>
		<path class="st5" d="M169.2,79.3h2.9v12c0,0.4,0.1,0.7,0.3,1c0.2,0.2,0.5,0.3,0.9,0.3c0.2,0,0.4,0,0.6-0.1
			c0.2-0.1,0.4-0.1,0.6-0.2l0.4,2.2c-0.4,0.2-0.8,0.3-1.3,0.4c-0.5,0.1-1,0.1-1.4,0.1c-0.9,0-1.6-0.2-2.1-0.7
			c-0.5-0.5-0.7-1.2-0.7-2V79.3z"/>
		<path class="st5" d="M181.1,95.1c-0.9,0-1.7-0.2-2.5-0.5s-1.3-0.7-1.9-1.3c-0.5-0.5-0.9-1.2-1.2-1.9c-0.3-0.7-0.4-1.4-0.4-2.2
			c0-0.8,0.1-1.5,0.4-2.2c0.3-0.7,0.7-1.3,1.2-1.9c0.5-0.5,1.1-1,1.9-1.3c0.7-0.3,1.5-0.5,2.5-0.5c0.9,0,1.7,0.2,2.5,0.5
			c0.7,0.3,1.3,0.7,1.8,1.3c0.5,0.5,0.9,1.2,1.2,1.9c0.3,0.7,0.4,1.4,0.4,2.2c0,0.8-0.1,1.5-0.4,2.2c-0.3,0.7-0.7,1.3-1.2,1.9
			c-0.5,0.5-1.1,1-1.8,1.3S182.1,95.1,181.1,95.1z M178.2,89.3c0,0.5,0.1,1,0.2,1.4c0.2,0.4,0.4,0.8,0.6,1.1s0.6,0.5,0.9,0.7
			c0.4,0.2,0.7,0.2,1.2,0.2c0.4,0,0.8-0.1,1.2-0.2c0.4-0.2,0.7-0.4,0.9-0.7s0.5-0.7,0.6-1.1c0.1-0.4,0.2-0.9,0.2-1.4
			c0-0.5-0.1-0.9-0.2-1.3c-0.2-0.4-0.4-0.8-0.6-1.1s-0.6-0.5-0.9-0.7c-0.4-0.2-0.7-0.2-1.2-0.2c-0.4,0-0.8,0.1-1.2,0.3
			c-0.4,0.2-0.7,0.4-0.9,0.7c-0.3,0.3-0.5,0.7-0.6,1.1C178.3,88.4,178.2,88.9,178.2,89.3z"/>
		<path class="st5" d="M193.3,95c-0.8,0-1.4-0.2-2.1-0.5c-0.6-0.3-1.1-0.7-1.6-1.2c-0.5-0.5-0.8-1.1-1-1.8c-0.2-0.7-0.4-1.4-0.4-2.2
			c0-0.8,0.1-1.6,0.4-2.3c0.3-0.7,0.6-1.3,1.1-1.8c0.5-0.5,1-0.9,1.6-1.2s1.3-0.5,2.1-0.5c0.9,0,1.6,0.2,2.3,0.6
			c0.7,0.4,1.2,0.9,1.6,1.6v-2h2.5v10.7c0,0.8-0.2,1.6-0.5,2.2c-0.3,0.7-0.7,1.2-1.3,1.7c-0.5,0.5-1.2,0.8-2,1
			c-0.8,0.2-1.6,0.4-2.5,0.4c-1.2,0-2.3-0.2-3.1-0.6c-0.8-0.4-1.6-1-2.2-1.7l1.6-1.5c0.4,0.5,1,0.9,1.6,1.2c0.7,0.3,1.3,0.4,2.1,0.4
			c0.4,0,0.9-0.1,1.3-0.2c0.4-0.1,0.8-0.3,1.1-0.6c0.3-0.3,0.6-0.6,0.7-1c0.2-0.4,0.3-0.9,0.3-1.4V93c-0.4,0.6-0.9,1.1-1.6,1.5
			C194.8,94.8,194.1,95,193.3,95z M194.3,92.7c0.3,0,0.6,0,0.9-0.2c0.3-0.1,0.5-0.2,0.8-0.4c0.2-0.2,0.5-0.4,0.6-0.6
			c0.2-0.2,0.3-0.5,0.4-0.7v-2.7c-0.3-0.7-0.7-1.2-1.2-1.6c-0.5-0.4-1.1-0.6-1.7-0.6c-0.4,0-0.8,0.1-1.2,0.3
			c-0.4,0.2-0.7,0.5-0.9,0.8c-0.3,0.3-0.5,0.7-0.6,1.1c-0.1,0.4-0.2,0.8-0.2,1.3c0,0.5,0.1,0.9,0.2,1.3c0.2,0.4,0.4,0.7,0.7,1
			c0.3,0.3,0.6,0.5,1,0.7C193.4,92.6,193.8,92.7,194.3,92.7z"/>
		<path class="st5" d="M202.7,97.1c0.2,0.1,0.5,0.1,0.7,0.2c0.2,0,0.4,0.1,0.6,0.1c0.2,0,0.4,0,0.5-0.1c0.2-0.1,0.3-0.2,0.4-0.4
			c0.1-0.2,0.3-0.4,0.4-0.7c0.1-0.3,0.3-0.7,0.4-1.2l-4.4-11.2h3l3,8.7l2.7-8.7h2.7L208,97.2c-0.3,0.8-0.7,1.4-1.4,1.9
			c-0.7,0.5-1.5,0.7-2.4,0.7c-0.2,0-0.5,0-0.7-0.1c-0.2,0-0.5-0.1-0.7-0.2V97.1z"/>
		<path class="st5" d="M229,94.9l-1.2-1.3c-0.6,0.5-1.3,0.9-2,1.1c-0.7,0.2-1.5,0.4-2.2,0.4c-0.8,0-1.5-0.1-2.1-0.4
			c-0.6-0.2-1.2-0.6-1.6-1c-0.4-0.4-0.8-0.9-1-1.4c-0.2-0.5-0.4-1.1-0.4-1.7c0-0.5,0.1-0.9,0.2-1.3c0.1-0.4,0.3-0.8,0.6-1.1
			c0.2-0.3,0.5-0.6,0.9-0.9c0.3-0.3,0.7-0.5,1-0.8c-0.6-0.7-1-1.3-1.3-1.8c-0.2-0.5-0.4-1-0.4-1.6c0-0.5,0.1-1,0.3-1.5
			c0.2-0.5,0.5-0.8,0.9-1.2c0.4-0.3,0.8-0.6,1.3-0.7c0.5-0.2,1.1-0.3,1.7-0.3c0.5,0,1,0.1,1.5,0.2c0.5,0.1,0.9,0.4,1.3,0.6
			c0.4,0.3,0.7,0.6,0.9,1c0.2,0.4,0.3,0.9,0.3,1.5c0,0.8-0.2,1.6-0.7,2.2c-0.5,0.6-1.1,1.2-1.9,1.7l2.9,3c0.2-0.5,0.4-1,0.5-1.5
			c0.1-0.5,0.2-1.1,0.2-1.8h2.3c0,1-0.1,1.9-0.4,2.8c-0.2,0.8-0.5,1.6-1,2.3l3.1,3.3H229z M223.8,92.9c0.9,0,1.7-0.3,2.5-0.9
			l-3.5-3.7c-0.5,0.4-0.9,0.7-1.2,1.1c-0.3,0.4-0.4,0.8-0.4,1.2c0,0.3,0.1,0.6,0.2,0.9c0.1,0.3,0.3,0.5,0.5,0.7
			c0.2,0.2,0.5,0.4,0.8,0.5C223.1,92.8,223.4,92.9,223.8,92.9z M222,83.1c0,0.1,0,0.3,0.1,0.4c0,0.1,0.1,0.3,0.2,0.4
			c0.1,0.1,0.2,0.3,0.4,0.5c0.2,0.2,0.4,0.4,0.6,0.7c0.5-0.4,1-0.7,1.2-1c0.3-0.3,0.4-0.7,0.4-1.1s-0.1-0.7-0.4-0.9
			c-0.3-0.2-0.6-0.4-1-0.4c-0.5,0-0.8,0.1-1.1,0.4C222.2,82.3,222,82.7,222,83.1z"/>
		<path class="st5" d="M251.9,94.9V84.9l-3.9,7.5h-1.6l-3.9-7.5v10.1h-3V79.7h3.2l4.5,8.7l4.5-8.7h3.1v15.2H251.9z"/>
		<path class="st5" d="M262.8,95.1c-0.9,0-1.7-0.2-2.4-0.5c-0.7-0.3-1.3-0.7-1.9-1.3s-0.9-1.1-1.2-1.8c-0.3-0.7-0.4-1.4-0.4-2.2
			c0-0.8,0.1-1.6,0.4-2.3c0.3-0.7,0.7-1.3,1.2-1.9c0.5-0.5,1.1-1,1.9-1.3c0.7-0.3,1.6-0.5,2.5-0.5c0.9,0,1.7,0.2,2.5,0.5
			c0.7,0.3,1.3,0.7,1.8,1.3c0.5,0.5,0.9,1.1,1.2,1.8c0.3,0.7,0.4,1.4,0.4,2.2c0,0.2,0,0.4,0,0.5c0,0.2,0,0.3-0.1,0.4h-8.7
			c0,0.4,0.1,0.8,0.3,1.2s0.4,0.6,0.7,0.9c0.3,0.2,0.6,0.4,0.9,0.6c0.3,0.1,0.7,0.2,1.1,0.2c0.6,0,1.1-0.1,1.6-0.4
			c0.5-0.3,0.9-0.6,1-1.1l2.5,0.7c-0.4,0.9-1.1,1.6-2,2.1C265.1,94.9,264.1,95.1,262.8,95.1z M265.7,88.4c-0.1-0.8-0.4-1.5-0.9-2
			c-0.5-0.5-1.2-0.8-2-0.8c-0.4,0-0.7,0.1-1.1,0.2c-0.3,0.1-0.6,0.3-0.9,0.6c-0.3,0.2-0.5,0.5-0.6,0.9s-0.3,0.7-0.3,1.1H265.7z"/>
		<path class="st5" d="M275.1,95.1c-0.8,0-1.5-0.1-2.1-0.5c-0.7-0.3-1.2-0.7-1.7-1.2c-0.5-0.5-0.8-1.1-1.1-1.9
			c-0.3-0.7-0.4-1.5-0.4-2.3s0.1-1.6,0.4-2.3c0.2-0.7,0.6-1.3,1-1.8c0.4-0.5,1-0.9,1.6-1.2s1.3-0.5,2-0.5c0.8,0,1.6,0.2,2.2,0.6
			c0.7,0.4,1.2,0.9,1.6,1.6v-6.4h2.9v12.3c0,0.3,0,0.5,0.2,0.6c0.1,0.1,0.3,0.2,0.5,0.2v2.4c-0.5,0.1-0.9,0.2-1.2,0.2
			c-0.5,0-0.9-0.1-1.3-0.4c-0.3-0.3-0.5-0.6-0.6-1L279,93c-0.4,0.7-1,1.3-1.7,1.6C276.6,95,275.8,95.1,275.1,95.1z M275.8,92.7
			c0.3,0,0.5,0,0.8-0.1c0.3-0.1,0.5-0.2,0.8-0.4c0.2-0.2,0.5-0.4,0.7-0.6c0.2-0.2,0.3-0.5,0.4-0.7v-2.7c-0.1-0.3-0.3-0.6-0.5-0.9
			c-0.2-0.3-0.4-0.5-0.7-0.7c-0.3-0.2-0.5-0.3-0.8-0.5c-0.3-0.1-0.6-0.2-0.9-0.2c-0.4,0-0.8,0.1-1.2,0.3c-0.4,0.2-0.7,0.4-0.9,0.8
			c-0.3,0.3-0.5,0.7-0.6,1.1c-0.1,0.4-0.2,0.8-0.2,1.3c0,0.5,0.1,0.9,0.2,1.3c0.2,0.4,0.4,0.7,0.6,1s0.6,0.5,1,0.7
			C275,92.6,275.4,92.7,275.8,92.7z"/>
		<path class="st5" d="M284.2,82.1v-2.8h2.9v2.8H284.2z M284.2,94.9V83.7h2.9v11.2H284.2z"/>
		<path class="st5" d="M292.8,95.1c-0.5,0-1-0.1-1.5-0.3c-0.5-0.2-0.9-0.4-1.2-0.7c-0.3-0.3-0.6-0.7-0.8-1.1
			c-0.2-0.4-0.3-0.9-0.3-1.4c0-0.5,0.1-1,0.4-1.5c0.2-0.4,0.6-0.8,1-1.1c0.4-0.3,0.9-0.6,1.5-0.7c0.6-0.2,1.2-0.3,1.9-0.3
			c0.5,0,1,0,1.5,0.1c0.5,0.1,0.9,0.2,1.3,0.4v-0.6c0-0.7-0.2-1.3-0.6-1.7c-0.4-0.4-1-0.6-1.9-0.6c-0.6,0-1.2,0.1-1.8,0.3
			c-0.6,0.2-1.2,0.5-1.8,0.9l-0.9-1.8c1.4-1,3-1.4,4.7-1.4c1.6,0,2.9,0.4,3.8,1.2c0.9,0.8,1.3,1.9,1.3,3.4v3.5
			c0,0.3,0.1,0.5,0.2,0.6c0.1,0.1,0.3,0.2,0.5,0.2v2.4c-0.5,0.1-0.9,0.2-1.3,0.2c-0.5,0-1-0.1-1.3-0.4c-0.3-0.2-0.5-0.6-0.5-1
			l-0.1-0.6c-0.5,0.7-1.1,1.2-1.8,1.5C294.3,95,293.6,95.1,292.8,95.1z M293.6,93c0.5,0,0.9-0.1,1.4-0.3c0.4-0.2,0.8-0.4,1-0.7
			c0.3-0.2,0.5-0.5,0.5-0.8V90c-0.3-0.1-0.7-0.2-1.1-0.3c-0.4-0.1-0.8-0.1-1.2-0.1c-0.7,0-1.3,0.2-1.8,0.5c-0.5,0.3-0.7,0.8-0.7,1.3
			c0,0.5,0.2,0.9,0.6,1.2C292.6,92.9,293,93,293.6,93z"/>
	</g>
</g>
</svg>
