<?xml version="1.0" encoding="utf-8"?>
<!-- Generator: Adobe Illustrator 22.0.1, SVG Export Plug-In . SVG Version: 6.00 Build 0)  -->
<svg version="1.1" id="Layer_1" xmlns="http://www.w3.org/2000/svg" xmlns:xlink="http://www.w3.org/1999/xlink" x="0px" y="0px"
	 viewBox="0 0 200 65" style="enable-background:new 0 0 200 65;" xml:space="preserve">
<style type="text/css">
	.st0{fill:#FFFFFF;}
</style>
<g>
	<g>
		<path class="st0" d="M5.2,56.5C5.7,56.9,6,57.4,6,58H5.1c-0.1-0.4-0.3-0.8-0.6-1.1c-0.3-0.2-0.7-0.4-1.3-0.4
			c-0.7,0-1.2,0.2-1.6,0.7S1,58.5,1,59.5c0,0.8,0.2,1.5,0.5,2c0.4,0.5,0.9,0.8,1.6,0.8c0.7,0,1.2-0.3,1.6-0.8
			c0.2-0.3,0.3-0.6,0.4-1.1h0.9c-0.1,0.7-0.3,1.4-0.8,1.8c-0.5,0.6-1.3,0.9-2.2,0.9c-0.8,0-1.5-0.2-2-0.7c-0.7-0.6-1.1-1.6-1.1-3
			c0-1,0.3-1.8,0.8-2.5c0.6-0.7,1.4-1.1,2.4-1.1C4.1,55.8,4.7,56,5.2,56.5z"/>
		<path class="st0" d="M10.9,58.4c0.4,0.4,0.7,1.1,0.7,1.9c0,0.8-0.2,1.5-0.6,2c-0.4,0.5-1,0.8-1.8,0.8c-0.7,0-1.2-0.2-1.6-0.7
			c-0.4-0.5-0.6-1.1-0.6-1.9c0-0.8,0.2-1.5,0.6-2c0.4-0.5,1-0.8,1.7-0.8C9.8,57.7,10.4,57.9,10.9,58.4z M10.3,61.7
			c0.2-0.4,0.3-0.9,0.3-1.4c0-0.5-0.1-0.9-0.2-1.2c-0.2-0.5-0.6-0.7-1.2-0.7c-0.5,0-0.9,0.2-1.1,0.6c-0.2,0.4-0.3,0.9-0.3,1.4
			c0,0.5,0.1,1,0.3,1.4c0.2,0.3,0.6,0.5,1.1,0.5C9.7,62.3,10.1,62.1,10.3,61.7z"/>
		<path class="st0" d="M12.6,57.9h0.8v0.7c0.2-0.3,0.5-0.5,0.8-0.6c0.3-0.1,0.6-0.2,0.9-0.2c0.7,0,1.2,0.2,1.5,0.7
			c0.1,0.3,0.2,0.7,0.2,1.2v3.2h-0.9v-3.2c0-0.3,0-0.5-0.1-0.7c-0.1-0.3-0.4-0.5-0.8-0.5c-0.2,0-0.4,0-0.5,0c-0.2,0-0.4,0.2-0.6,0.4
			c-0.1,0.1-0.2,0.3-0.3,0.5c0,0.2,0,0.4,0,0.8v2.6h-0.8L12.6,57.9z"/>
		<path class="st0" d="M18.1,56.5H19v1.4h0.8v0.7H19v3.3c0,0.2,0,0.3,0.2,0.3c0,0,0.2,0,0.3,0c0,0,0.1,0,0.1,0c0,0,0.1,0,0.1,0v0.7
			c-0.1,0-0.2,0-0.3,0c-0.1,0-0.2,0-0.3,0c-0.4,0-0.7-0.1-0.8-0.3c-0.1-0.2-0.2-0.5-0.2-0.8v-3.3h-0.7v-0.7h0.7L18.1,56.5L18.1,56.5
			z"/>
		<path class="st0" d="M20.6,56h0.9v1h-0.9V56z M20.6,57.9h0.9v5h-0.9V57.9z"/>
		<path class="st0" d="M22.7,57.9h0.8v0.7c0.2-0.3,0.5-0.5,0.8-0.6c0.3-0.1,0.6-0.2,0.9-0.2c0.7,0,1.2,0.2,1.5,0.7
			c0.1,0.3,0.2,0.7,0.2,1.2v3.2H26v-3.2c0-0.3,0-0.5-0.1-0.7c-0.1-0.3-0.4-0.5-0.8-0.5c-0.2,0-0.4,0-0.5,0c-0.2,0-0.4,0.2-0.6,0.4
			c-0.1,0.1-0.2,0.3-0.3,0.5c0,0.2,0,0.4,0,0.8v2.6h-0.8C22.7,62.9,22.7,57.9,22.7,57.9z"/>
		<path class="st0" d="M28.9,57.9v3.3c0,0.2,0,0.5,0.1,0.6c0.1,0.3,0.4,0.4,0.8,0.4c0.6,0,1-0.2,1.2-0.8c0.1-0.3,0.2-0.7,0.2-1.2
			v-2.5H32v5h-0.8v-0.7c-0.1,0.2-0.2,0.3-0.4,0.5c-0.3,0.2-0.7,0.4-1.2,0.4c-0.7,0-1.2-0.2-1.5-0.7c-0.1-0.2-0.2-0.6-0.2-1v-3.4
			L28.9,57.9L28.9,57.9z"/>
		<path class="st0" d="M33.4,56h0.9v1h-0.9V56z M33.4,57.9h0.9v5h-0.9V57.9z"/>
		<path class="st0" d="M35.6,57.9h0.8v0.7c0.2-0.3,0.5-0.5,0.8-0.6c0.3-0.1,0.6-0.2,0.9-0.2c0.7,0,1.2,0.2,1.5,0.7
			c0.1,0.3,0.2,0.7,0.2,1.2v3.2h-0.9v-3.2c0-0.3,0-0.5-0.1-0.7c-0.1-0.3-0.4-0.5-0.8-0.5c-0.2,0-0.4,0-0.5,0c-0.2,0-0.4,0.2-0.6,0.4
			c-0.1,0.1-0.2,0.3-0.3,0.5c0,0.2,0,0.4,0,0.8v2.6h-0.8V57.9z"/>
		<path class="st0" d="M43.8,58.1c0.1,0.1,0.3,0.3,0.5,0.5v-0.6H45v4.6c0,0.6-0.1,1.2-0.3,1.5c-0.3,0.7-1,1-2,1
			c-0.5,0-1-0.1-1.4-0.3c-0.4-0.2-0.6-0.6-0.6-1.2h0.9c0,0.2,0.1,0.4,0.2,0.5c0.2,0.2,0.5,0.3,0.9,0.3c0.6,0,1.1-0.2,1.3-0.7
			c0.1-0.3,0.2-0.8,0.1-1.5c-0.1,0.2-0.4,0.4-0.6,0.6C43.3,63,43,63,42.7,63c-0.5,0-1-0.2-1.4-0.6c-0.4-0.4-0.6-1-0.6-1.9
			c0-0.8,0.2-1.5,0.6-2c0.4-0.5,0.9-0.7,1.5-0.7C43.1,57.8,43.5,57.9,43.8,58.1z M43.9,58.9c-0.2-0.3-0.6-0.4-1-0.4
			c-0.6,0-1,0.3-1.2,0.8c-0.1,0.3-0.2,0.7-0.2,1.2c0,0.6,0.1,1,0.3,1.3c0.2,0.3,0.5,0.4,0.9,0.4c0.6,0,1-0.3,1.3-0.8
			c0.1-0.3,0.2-0.7,0.2-1.1C44.3,59.7,44.2,59.3,43.9,58.9z"/>
		<path class="st0" d="M49.2,56h5v0.8h-4.1v2.1h3.8v0.8h-3.8V62h4.2v0.8h-5.1V56z"/>
		<path class="st0" d="M58.2,58c0.1,0.1,0.3,0.2,0.5,0.5v-2.6h0.8v6.9h-0.8v-0.7c-0.2,0.3-0.4,0.5-0.7,0.7c-0.3,0.1-0.6,0.2-0.9,0.2
			c-0.6,0-1.1-0.2-1.5-0.7c-0.4-0.5-0.6-1.1-0.6-1.9c0-0.7,0.2-1.4,0.6-1.9c0.4-0.5,0.9-0.8,1.6-0.8C57.6,57.8,58,57.8,58.2,58z
			 M56.3,61.8c0.2,0.4,0.6,0.5,1.1,0.5c0.4,0,0.7-0.2,1-0.5c0.2-0.3,0.4-0.8,0.4-1.5s-0.1-1.1-0.4-1.4c-0.2-0.3-0.6-0.4-1-0.4
			c-0.4,0-0.8,0.1-1,0.5c-0.2,0.3-0.4,0.8-0.4,1.5C56,61,56.1,61.4,56.3,61.8z"/>
		<path class="st0" d="M61.7,57.9v3.3c0,0.2,0,0.5,0.1,0.6c0.1,0.3,0.4,0.4,0.8,0.4c0.6,0,1-0.2,1.2-0.8c0.1-0.3,0.2-0.7,0.2-1.2
			v-2.5h0.8v5h-0.8v-0.7c-0.1,0.2-0.2,0.3-0.4,0.5c-0.3,0.2-0.7,0.4-1.2,0.4c-0.7,0-1.2-0.2-1.5-0.7c-0.1-0.2-0.2-0.6-0.2-1v-3.4
			L61.7,57.9L61.7,57.9z"/>
		<path class="st0" d="M69.5,58.1c0.3,0.3,0.6,0.8,0.6,1.4h-0.8c0-0.3-0.1-0.6-0.3-0.8c-0.2-0.2-0.5-0.3-0.9-0.3
			c-0.5,0-0.9,0.2-1.2,0.8c-0.1,0.3-0.2,0.8-0.2,1.3s0.1,0.9,0.3,1.3c0.2,0.3,0.5,0.5,1,0.5c0.3,0,0.6-0.1,0.8-0.3
			c0.2-0.2,0.3-0.5,0.4-0.9h0.8c-0.1,0.7-0.3,1.2-0.7,1.5S68.5,63,68,63c-0.7,0-1.2-0.2-1.6-0.7c-0.4-0.5-0.6-1.1-0.6-1.8
			c0-0.9,0.2-1.6,0.6-2.1c0.4-0.5,1-0.7,1.6-0.7C68.7,57.7,69.2,57.8,69.5,58.1z"/>
		<path class="st0" d="M73.7,59.9c0.2,0,0.3-0.1,0.4-0.2c0-0.1,0-0.2,0-0.3c0-0.3-0.1-0.5-0.3-0.6c-0.2-0.1-0.5-0.2-0.9-0.2
			c-0.4,0-0.8,0.1-0.9,0.3c-0.1,0.1-0.2,0.3-0.2,0.6H71c0-0.6,0.2-1.1,0.6-1.3c0.4-0.2,0.8-0.4,1.4-0.4c0.6,0,1.1,0.1,1.5,0.3
			c0.4,0.2,0.5,0.6,0.5,1.1V62c0,0.1,0,0.1,0,0.2c0,0,0.1,0.1,0.2,0.1c0,0,0.1,0,0.1,0c0,0,0.1,0,0.1,0v0.6c-0.1,0-0.2,0-0.3,0
			s-0.1,0-0.3,0c-0.3,0-0.5-0.1-0.6-0.3c0-0.1-0.1-0.3-0.1-0.5c-0.2,0.2-0.4,0.4-0.7,0.6c-0.3,0.1-0.7,0.2-1.1,0.2
			c-0.5,0-0.9-0.1-1.2-0.4c-0.3-0.3-0.4-0.6-0.4-1.1c0-0.5,0.1-0.8,0.4-1.1c0.3-0.2,0.7-0.4,1.2-0.5L73.7,59.9z M71.9,62.1
			c0.2,0.1,0.4,0.2,0.6,0.2c0.3,0,0.6,0,0.9-0.2c0.5-0.2,0.7-0.6,0.7-1.1v-0.7c-0.1,0-0.2,0.1-0.4,0.1c-0.1,0-0.3,0.1-0.5,0.1
			l-0.5,0c-0.3,0-0.5,0.1-0.7,0.2c-0.2,0.1-0.4,0.4-0.4,0.7C71.6,61.8,71.7,62,71.9,62.1z"/>
		<path class="st0" d="M76.5,56.5h0.9v1.4h0.8v0.7h-0.8v3.3c0,0.2,0,0.3,0.2,0.3c0,0,0.2,0,0.3,0c0,0,0.1,0,0.1,0s0.1,0,0.1,0v0.7
			c-0.1,0-0.2,0-0.3,0s-0.2,0-0.3,0c-0.4,0-0.7-0.1-0.8-0.3c-0.1-0.2-0.2-0.5-0.2-0.8v-3.3h-0.7v-0.7h0.7V56.5z"/>
		<path class="st0" d="M79.1,56h0.9v1h-0.9V56z M79.1,57.9h0.9v5h-0.9V57.9z"/>
		<path class="st0" d="M84.8,58.4c0.4,0.4,0.7,1.1,0.7,1.9c0,0.8-0.2,1.5-0.6,2c-0.4,0.5-1,0.8-1.8,0.8c-0.7,0-1.2-0.2-1.6-0.7
			c-0.4-0.5-0.6-1.1-0.6-1.9c0-0.8,0.2-1.5,0.6-2c0.4-0.5,1-0.8,1.7-0.8C83.8,57.7,84.4,57.9,84.8,58.4z M84.3,61.7
			c0.2-0.4,0.3-0.9,0.3-1.4c0-0.5-0.1-0.9-0.2-1.2c-0.2-0.5-0.6-0.7-1.2-0.7c-0.5,0-0.9,0.2-1.1,0.6c-0.2,0.4-0.3,0.9-0.3,1.4
			c0,0.5,0.1,1,0.3,1.4c0.2,0.3,0.6,0.5,1.1,0.5C83.7,62.3,84.1,62.1,84.3,61.7z"/>
		<path class="st0" d="M86.5,57.9h0.8v0.7c0.2-0.3,0.5-0.5,0.8-0.6c0.3-0.1,0.6-0.2,0.9-0.2c0.7,0,1.2,0.2,1.5,0.7
			c0.1,0.3,0.2,0.7,0.2,1.2v3.2h-0.9v-3.2c0-0.3,0-0.5-0.1-0.7c-0.1-0.3-0.4-0.5-0.8-0.5c-0.2,0-0.4,0-0.5,0c-0.2,0-0.4,0.2-0.6,0.4
			c-0.1,0.1-0.2,0.3-0.3,0.5c0,0.2,0,0.4,0,0.8v2.6h-0.8V57.9z"/>
		<path class="st0" d="M92.1,63.9c0.2,0,0.4-0.2,0.4-0.4c0-0.1,0-0.3,0-0.4v0v0H92v-1h1v1c0,0.4-0.1,0.7-0.2,1
			c-0.1,0.3-0.4,0.4-0.8,0.5L92.1,63.9L92.1,63.9z"/>
		<path class="st0" d="M103,56.9c0.4,0.6,0.7,1.4,0.7,2.3c0,1-0.2,1.9-0.8,2.6c-0.6,0.8-1.5,1.2-2.6,1.2c-1.1,0-1.9-0.3-2.5-1.1
			c-0.5-0.7-0.8-1.6-0.8-2.6c0-0.9,0.2-1.7,0.7-2.4c0.6-0.9,1.5-1.3,2.7-1.3C101.6,55.8,102.5,56.2,103,56.9z M102.2,61.4
			c0.4-0.6,0.5-1.3,0.5-2c0-0.8-0.2-1.5-0.6-2c-0.4-0.5-1-0.7-1.7-0.7s-1.3,0.2-1.7,0.7c-0.4,0.5-0.7,1.2-0.7,2.2
			c0,0.8,0.2,1.4,0.6,1.9s1,0.8,1.9,0.8C101.2,62.3,101.9,61.9,102.2,61.4z"/>
		<path class="st0" d="M105.6,57.9v3.3c0,0.2,0,0.5,0.1,0.6c0.1,0.3,0.4,0.4,0.8,0.4c0.6,0,1-0.2,1.2-0.8c0.1-0.3,0.1-0.7,0.1-1.2
			v-2.5h0.8v5h-0.8v-0.7c-0.1,0.2-0.2,0.3-0.4,0.5c-0.3,0.2-0.7,0.4-1.2,0.4c-0.7,0-1.2-0.2-1.5-0.7c-0.1-0.2-0.2-0.6-0.2-1v-3.4
			L105.6,57.9L105.6,57.9z"/>
		<path class="st0" d="M110.3,56.5h0.9v1.4h0.8v0.7h-0.8v3.3c0,0.2,0,0.3,0.2,0.3c0,0,0.2,0,0.3,0c0,0,0.1,0,0.1,0s0.1,0,0.1,0v0.7
			c-0.1,0-0.2,0-0.3,0s-0.2,0-0.3,0c-0.4,0-0.7-0.1-0.8-0.3c-0.1-0.2-0.2-0.5-0.2-0.8v-3.3h-0.7v-0.7h0.7L110.3,56.5L110.3,56.5z"/>
		<path class="st0" d="M112.8,57.9h0.8v0.9c0-0.2,0.2-0.4,0.5-0.6c0.2-0.2,0.5-0.4,0.9-0.4c0,0,0,0,0.1,0c0,0,0.1,0,0.2,0v0.9
			c0,0-0.1,0-0.1,0s-0.1,0-0.1,0c-0.4,0-0.8,0.1-1,0.4c-0.2,0.3-0.3,0.6-0.3,1v2.9h-0.8L112.8,57.9L112.8,57.9z"/>
		<path class="st0" d="M119.1,58c0.3,0.2,0.6,0.4,0.8,0.6c0.1,0.2,0.3,0.5,0.3,0.9c0,0.2,0.1,0.6,0.1,1.1h-3.7
			c0,0.5,0.1,0.9,0.3,1.2c0.2,0.3,0.6,0.5,1,0.5s0.8-0.1,1.1-0.4c0.1-0.2,0.2-0.4,0.3-0.6h0.8c0,0.2-0.1,0.4-0.2,0.6
			c-0.1,0.2-0.2,0.4-0.4,0.6c-0.2,0.2-0.6,0.4-1,0.5c-0.2,0-0.4,0.1-0.7,0.1c-0.6,0-1.2-0.2-1.6-0.7c-0.4-0.4-0.6-1.1-0.6-1.9
			c0-0.8,0.2-1.5,0.7-2c0.4-0.5,1-0.8,1.7-0.8C118.5,57.7,118.8,57.8,119.1,58z M119.4,60c0-0.4-0.1-0.7-0.2-0.9
			c-0.2-0.4-0.6-0.6-1.2-0.6c-0.4,0-0.7,0.1-1,0.4c-0.2,0.3-0.4,0.6-0.4,1.1L119.4,60L119.4,60z"/>
		<path class="st0" d="M124.1,59.9c0.2,0,0.3-0.1,0.4-0.2c0-0.1,0-0.2,0-0.3c0-0.3-0.1-0.5-0.3-0.6c-0.2-0.1-0.5-0.2-0.9-0.2
			c-0.4,0-0.8,0.1-0.9,0.3c-0.1,0.1-0.2,0.3-0.2,0.6h-0.8c0-0.6,0.2-1.1,0.6-1.3c0.4-0.2,0.8-0.4,1.4-0.4c0.6,0,1.1,0.1,1.5,0.3
			c0.4,0.2,0.5,0.6,0.5,1.1V62c0,0.1,0,0.1,0,0.2c0,0,0.1,0.1,0.2,0.1c0,0,0.1,0,0.1,0c0,0,0.1,0,0.1,0v0.6c-0.1,0-0.2,0-0.3,0
			s-0.1,0-0.3,0c-0.3,0-0.5-0.1-0.6-0.3c0-0.1-0.1-0.3-0.1-0.5c-0.2,0.2-0.4,0.4-0.7,0.6c-0.3,0.1-0.7,0.2-1.1,0.2
			c-0.5,0-0.9-0.1-1.2-0.4c-0.3-0.3-0.4-0.6-0.4-1.1c0-0.5,0.1-0.8,0.4-1.1c0.3-0.2,0.7-0.4,1.2-0.5L124.1,59.9z M122.3,62.1
			c0.2,0.1,0.4,0.2,0.6,0.2c0.3,0,0.6,0,0.9-0.2c0.5-0.2,0.7-0.6,0.7-1.1v-0.7c-0.1,0-0.2,0.1-0.4,0.1c-0.1,0-0.3,0.1-0.5,0.1
			l-0.5,0c-0.3,0-0.5,0.1-0.7,0.2c-0.2,0.1-0.4,0.4-0.4,0.7C122,61.8,122.1,62,122.3,62.1z"/>
		<path class="st0" d="M130,58.1c0.3,0.3,0.6,0.8,0.6,1.4h-0.8c0-0.3-0.1-0.6-0.3-0.8c-0.2-0.2-0.5-0.3-0.9-0.3
			c-0.5,0-0.9,0.2-1.2,0.8c-0.1,0.3-0.2,0.8-0.2,1.3s0.1,0.9,0.3,1.3c0.2,0.3,0.5,0.5,1,0.5c0.3,0,0.6-0.1,0.8-0.3
			c0.2-0.2,0.3-0.5,0.4-0.9h0.8c-0.1,0.7-0.3,1.2-0.7,1.5c-0.4,0.3-0.9,0.5-1.5,0.5c-0.7,0-1.2-0.2-1.6-0.7
			c-0.4-0.5-0.6-1.1-0.6-1.8c0-0.9,0.2-1.6,0.6-2.1c0.4-0.5,1-0.7,1.6-0.7C129.2,57.7,129.7,57.8,130,58.1z"/>
		<path class="st0" d="M131.5,55.9h0.8v2.6c0.2-0.2,0.4-0.4,0.5-0.5c0.3-0.2,0.6-0.3,1-0.3c0.7,0,1.2,0.2,1.5,0.8
			c0.1,0.3,0.2,0.7,0.2,1.2v3.2h-0.9v-3.2c0-0.4,0-0.6-0.1-0.8c-0.1-0.3-0.4-0.4-0.9-0.4c-0.3,0-0.7,0.1-1,0.3
			c-0.3,0.2-0.4,0.7-0.4,1.4v2.7h-0.8L131.5,55.9L131.5,55.9z"/>
		<path class="st0" d="M140.4,58.2c-0.1-0.2-0.1-0.4-0.1-0.7c0-0.4,0.1-0.8,0.4-1.1c0.3-0.3,0.7-0.4,1.2-0.4c0.5,0,0.9,0.1,1.1,0.4
			c0.3,0.3,0.4,0.6,0.4,1c0,0.4-0.1,0.8-0.4,1.2c-0.1,0.2-0.4,0.4-0.8,0.7l1.3,1.5c0.1-0.2,0.1-0.4,0.2-0.6c0-0.1,0-0.3,0.1-0.5h0.8
			c0,0.4-0.1,0.9-0.3,1.3c-0.1,0.4-0.2,0.6-0.2,0.5l1.2,1.5H144l-0.6-0.8c-0.2,0.3-0.5,0.5-0.7,0.6c-0.4,0.2-0.8,0.3-1.3,0.3
			c-0.7,0-1.3-0.2-1.6-0.6c-0.3-0.4-0.5-0.8-0.5-1.3c0-0.5,0.1-1,0.5-1.3c0.2-0.2,0.5-0.5,1.1-0.8C140.7,58.7,140.5,58.4,140.4,58.2
			z M142.4,62.1c0.2-0.1,0.4-0.3,0.6-0.5l-1.6-1.9c-0.4,0.3-0.7,0.5-0.9,0.7c-0.2,0.2-0.3,0.5-0.3,0.9c0,0.4,0.1,0.6,0.4,0.8
			c0.3,0.2,0.5,0.3,0.9,0.3C141.9,62.3,142.2,62.2,142.4,62.1z M142.3,58.2c0.2-0.2,0.3-0.4,0.3-0.7c0-0.2,0-0.4-0.2-0.5
			c-0.1-0.1-0.3-0.2-0.5-0.2c-0.3,0-0.6,0.1-0.7,0.3c0,0.1-0.1,0.2-0.1,0.4c0,0.2,0,0.4,0.1,0.5c0.1,0.2,0.3,0.4,0.5,0.7
			C142,58.5,142.2,58.3,142.3,58.2z"/>
		<path class="st0" d="M148.9,56h5v0.8h-4.1v2.1h3.8v0.8h-3.8V62h4.2v0.8h-5.1V56z"/>
		<path class="st0" d="M154.9,59.8h2.4v0.9h-2.4V59.8z"/>
		<path class="st0" d="M158.4,56h0.9v6.1h3.5v0.8h-4.4V56z"/>
		<path class="st0" d="M166.8,58c0.3,0.2,0.6,0.4,0.8,0.6c0.1,0.2,0.3,0.5,0.3,0.9c0,0.2,0.1,0.6,0.1,1.1h-3.7
			c0,0.5,0.1,0.9,0.3,1.2c0.2,0.3,0.6,0.5,1,0.5s0.8-0.1,1.1-0.4c0.1-0.2,0.2-0.4,0.3-0.6h0.8c0,0.2-0.1,0.4-0.2,0.6
			c-0.1,0.2-0.2,0.4-0.4,0.6c-0.2,0.2-0.6,0.4-1,0.5c-0.2,0-0.4,0.1-0.7,0.1c-0.6,0-1.2-0.2-1.6-0.7s-0.6-1.1-0.6-1.9
			c0-0.8,0.2-1.5,0.7-2c0.4-0.5,1-0.8,1.7-0.8C166.1,57.7,166.5,57.8,166.8,58z M167.1,60c0-0.4-0.1-0.7-0.2-0.9
			c-0.2-0.4-0.6-0.6-1.2-0.6c-0.4,0-0.7,0.1-1,0.4c-0.2,0.3-0.4,0.6-0.4,1.1L167.1,60L167.1,60z"/>
		<path class="st0" d="M171.8,59.9c0.2,0,0.3-0.1,0.4-0.2c0-0.1,0-0.2,0-0.3c0-0.3-0.1-0.5-0.3-0.6s-0.5-0.2-0.9-0.2
			c-0.4,0-0.8,0.1-0.9,0.3c-0.1,0.1-0.2,0.3-0.2,0.6h-0.8c0-0.6,0.2-1.1,0.6-1.3c0.4-0.2,0.8-0.4,1.4-0.4c0.6,0,1.1,0.1,1.5,0.3
			c0.4,0.2,0.5,0.6,0.5,1.1V62c0,0.1,0,0.1,0,0.2c0,0,0.1,0.1,0.2,0.1c0,0,0.1,0,0.1,0c0,0,0.1,0,0.1,0v0.6c-0.1,0-0.2,0-0.3,0
			c0,0-0.1,0-0.3,0c-0.3,0-0.5-0.1-0.6-0.3c0-0.1-0.1-0.3-0.1-0.5c-0.2,0.2-0.4,0.4-0.7,0.6c-0.3,0.1-0.7,0.2-1.1,0.2
			c-0.5,0-0.9-0.1-1.2-0.4c-0.3-0.3-0.4-0.6-0.4-1.1c0-0.5,0.1-0.8,0.4-1.1c0.3-0.2,0.7-0.4,1.2-0.5L171.8,59.9z M170,62.1
			c0.2,0.1,0.4,0.2,0.6,0.2c0.3,0,0.6,0,0.9-0.2c0.5-0.2,0.7-0.6,0.7-1.1v-0.7c-0.1,0-0.2,0.1-0.4,0.1c-0.1,0-0.3,0.1-0.5,0.1
			l-0.5,0c-0.3,0-0.5,0.1-0.7,0.2c-0.2,0.1-0.4,0.4-0.4,0.7C169.7,61.8,169.8,62,170,62.1z"/>
		<path class="st0" d="M174.4,57.9h0.8v0.9c0-0.2,0.2-0.4,0.5-0.6c0.2-0.2,0.5-0.4,0.9-0.4c0,0,0,0,0.1,0c0,0,0.1,0,0.2,0v0.9
			c0,0-0.1,0-0.1,0c0,0-0.1,0-0.1,0c-0.4,0-0.8,0.1-1,0.4c-0.2,0.3-0.3,0.6-0.3,1v2.9h-0.8L174.4,57.9L174.4,57.9z"/>
		<path class="st0" d="M177.6,57.9h0.8v0.7c0.2-0.3,0.5-0.5,0.8-0.6c0.2-0.1,0.6-0.2,0.9-0.2c0.7,0,1.2,0.2,1.5,0.7
			c0.1,0.3,0.2,0.7,0.2,1.2v3.2h-0.9v-3.2c0-0.3,0-0.5-0.1-0.7c-0.1-0.3-0.4-0.5-0.8-0.5c-0.2,0-0.4,0-0.5,0c-0.2,0-0.4,0.2-0.6,0.4
			c-0.1,0.1-0.2,0.3-0.3,0.5c0,0.2,0,0.4,0,0.8v2.6h-0.8V57.9z"/>
		<path class="st0" d="M183,56h0.9v1H183V56z M183,57.9h0.9v5H183V57.9z"/>
		<path class="st0" d="M185.1,57.9h0.8v0.7c0.2-0.3,0.5-0.5,0.8-0.6c0.2-0.1,0.6-0.2,0.9-0.2c0.7,0,1.2,0.2,1.5,0.7
			c0.1,0.3,0.2,0.7,0.2,1.2v3.2h-0.9v-3.2c0-0.3,0-0.5-0.1-0.7c-0.1-0.3-0.4-0.5-0.8-0.5c-0.2,0-0.4,0-0.5,0c-0.2,0-0.4,0.2-0.6,0.4
			c-0.1,0.1-0.2,0.3-0.3,0.5c0,0.2,0,0.4,0,0.8v2.6h-0.8V57.9z"/>
	</g>
	<g>
		<path class="st0" d="M193.3,58.1c0.1,0.1,0.3,0.3,0.5,0.5v-0.6h0.8v4.6c0,0.6-0.1,1.2-0.3,1.5c-0.3,0.7-1,1-2,1
			c-0.5,0-1-0.1-1.4-0.3c-0.4-0.2-0.6-0.6-0.6-1.2h0.9c0,0.2,0.1,0.4,0.2,0.5c0.2,0.2,0.5,0.3,0.9,0.3c0.6,0,1.1-0.2,1.3-0.7
			c0.1-0.3,0.2-0.8,0.1-1.5c-0.1,0.2-0.4,0.4-0.6,0.6s-0.5,0.2-0.9,0.2c-0.5,0-1-0.2-1.4-0.6c-0.4-0.4-0.6-1-0.6-1.9
			c0-0.8,0.2-1.5,0.6-2c0.4-0.5,0.9-0.7,1.5-0.7C192.7,57.8,193,57.9,193.3,58.1z M193.4,58.9c-0.2-0.3-0.6-0.4-1-0.4
			c-0.6,0-1,0.3-1.2,0.8c-0.1,0.3-0.2,0.7-0.2,1.2c0,0.6,0.1,1,0.3,1.3c0.2,0.3,0.5,0.4,0.9,0.4c0.6,0,1-0.3,1.3-0.8
			c0.1-0.3,0.2-0.7,0.2-1.1C193.8,59.7,193.7,59.3,193.4,58.9z"/>
	</g>
	<g>
		<g>
			<path class="st0" d="M9.9,26.4h19l-1.4,5.7h-19C7.1,38,8,43.9,13.4,43.9h11.2l-1.4,5.7H11.7c-3.9,0-6.9-0.3-9.5-2.9
				C-0.5,44-0.1,36,1.3,30C4.1,18.5,11.2,9.4,21.7,9.4h11.4l-1.4,5.7H20.5C15.5,15.1,11.5,21.3,9.9,26.4"/>
			<path class="st0" d="M67.3,29.4c1.9-7.8,7-12,15-12h9.2l-1.2,5h-8.3c-4,0-5.9,0.7-7,4.5h14.2l-1.2,5H73.7
				c-0.8,3.9,0.7,4.5,4.7,4.5h8.4l-1.3,4.9h-9.2C68.4,41.3,65.3,37.3,67.3,29.4"/>
			<path class="st0" d="M106.1,17.4c7.1,0,9.4,2.4,7.9,8.8l-3.7,15.2h-6.3l3.5-14.4c0.8-3.3,0.4-4.3-3.2-4.3h-5.1l-4.6,18.7h-6.3
				l5.9-23.9L106.1,17.4L106.1,17.4z"/>
			<path class="st0" d="M127.2,36.4c2.3,0,3.5-0.6,4-2.3c0.4-1.7-0.5-2.4-2.8-2.4h-5.5c-5.8,0-7.9-1.2-6.6-6.7
				c1.3-5.1,4.5-7.5,10.3-7.5h13.6l-1.3,5h-11.1c-2.9,0-4.4,0.2-4.9,2.2c-0.4,1.5,0.4,2.1,2.5,2.1h5.7c5.3,0,7.4,2.5,6.3,7.1
				c-1.1,4.5-4.6,7.5-8.4,7.5h-16.3l1.2-5L127.2,36.4L127.2,36.4z"/>
		</g>
		<polygon class="st0" points="138,41.3 143.9,17.4 150.5,17.4 144.7,41.3 		"/>
		<g>
			<path class="st0" d="M160.5,36.6c3.7,0,6.7-2.6,7.9-7.2c1.1-4.6-0.5-7.2-4.3-7.2c-3.7,0-6.7,2.6-7.8,7.2
				C155,34,156.7,36.6,160.5,36.6 M159.3,41.7c-7.8,0-11.5-4.9-9.7-12.4c1.8-7.5,7.9-12.4,15.8-12.4c7.8,0,11.4,4.9,9.6,12.4
				C173.1,36.8,167.1,41.7,159.3,41.7"/>
			<path class="st0" d="M191.7,17.4c7.1,0,9.4,2.4,7.9,8.8l-3.7,15.2h-6.3L193,27c0.8-3.3,0.4-4.3-3.2-4.3h-5.1l-4.6,18.7H174
				l5.9-23.9L191.7,17.4L191.7,17.4z"/>
		</g>
		<polygon class="st0" points="152.4,9.3 145.8,9.3 144.4,15 151,15 		"/>
		<polygon class="st0" points="195.2,43.9 193.8,49.5 26.4,49.5 27.8,43.9 		"/>
		<g>
			<path class="st0" d="M46.5,17.4l-7,7.2l-3.3-7.2h-7.3l5.9,12L22.9,41.3h7.4l6.8-6.9l3.3,6.9h7.3l-5.8-11.8l7.2-7.4h5.8l-2.9,11.7
				c-1.2,4.9,0.8,7.5,5.4,7.5h5.8l1.2-4.7h-2.6c-3.2,0-3.7-1.4-2.9-4.7l2.4-9.6H68l1.2-4.7L46.5,17.4L46.5,17.4z"/>
			<path class="st0" d="M51.5,0.4L53,15.2h4.5l5.8-10.4l0.7,10.4h4.6L77.5,0h-4.1l-6,10.7L66.6,0h-4.3l-6,10.7L55.7,0h-8l-3,11.9
				h-3.2c-2.1,0-2.5-0.5-2-2.5L41.8,0h-4l-2.4,9.6c-1,4,0.6,5.6,4.9,5.6h7.6L51.5,0.4z"/>
		</g>
	</g>
</g>
</svg>
