<?xml version="1.0" encoding="utf-8"?>
<!-- Generator: Adobe Illustrator 26.2.1, SVG Export Plug-In . SVG Version: 6.00 Build 0)  -->
<svg version="1.1" xmlns="http://www.w3.org/2000/svg" xmlns:xlink="http://www.w3.org/1999/xlink" x="0px" y="0px"
	 viewBox="0 0 300 125" style="enable-background:new 0 0 300 125;" xml:space="preserve">
<style type="text/css">
	.st0{opacity:0.25;fill:#F2F2F2;}
	.st1{fill:#FFFFFF;}
</style>
<g id="bg">
	<g>
		<path class="st0" d="M50,94.347c64.064-0.651,135.936-0.656,200,0C185.936,95.003,114.064,94.997,50,94.347L50,94.347z"/>
	</g>
</g>
<g id="ltm">
	<g>
		<path class="st1" d="M1.573,120.134v-15.089h2.933v12.518h7.693v2.571H1.573z"/>
		<path class="st1" d="M18.425,120.347c-0.893,0-1.7-0.152-2.423-0.457c-0.722-0.305-1.339-0.719-1.849-1.243
			c-0.51-0.524-0.903-1.134-1.18-1.828c-0.276-0.693-0.414-1.424-0.414-2.188c0-0.793,0.134-1.541,0.404-2.242
			c0.269-0.701,0.659-1.317,1.168-1.849c0.51-0.531,1.13-0.953,1.86-1.265c0.729-0.312,1.547-0.468,2.454-0.468
			s1.718,0.156,2.434,0.468c0.715,0.312,1.324,0.729,1.828,1.254c0.502,0.524,0.885,1.134,1.147,1.827
			c0.262,0.694,0.393,1.417,0.393,2.168c0,0.185-0.003,0.361-0.011,0.531s-0.025,0.312-0.053,0.425h-8.607
			c0.042,0.439,0.149,0.829,0.319,1.169s0.389,0.631,0.659,0.871c0.269,0.241,0.574,0.426,0.914,0.553
			c0.34,0.128,0.694,0.191,1.062,0.191c0.567,0,1.102-0.138,1.604-0.414s0.847-0.642,1.031-1.095l2.444,0.68
			c-0.411,0.851-1.066,1.548-1.965,2.094C20.745,120.073,19.671,120.347,18.425,120.347z M21.315,113.631
			c-0.071-0.836-0.379-1.505-0.924-2.008c-0.546-0.503-1.208-0.755-1.987-0.755c-0.382,0-0.74,0.067-1.073,0.202
			s-0.626,0.322-0.882,0.562c-0.255,0.241-0.464,0.532-0.627,0.872s-0.258,0.715-0.287,1.126H21.315z"/>
		<path class="st1" d="M29.029,120.347c-0.539,0-1.042-0.089-1.509-0.266c-0.468-0.178-0.872-0.426-1.211-0.744
			c-0.34-0.318-0.606-0.69-0.797-1.116c-0.191-0.425-0.287-0.892-0.287-1.402c0-0.523,0.117-1.009,0.351-1.455
			s0.56-0.825,0.978-1.138c0.418-0.312,0.917-0.556,1.499-0.732c0.581-0.178,1.218-0.266,1.913-0.266
			c0.496,0,0.98,0.042,1.456,0.127c0.475,0.085,0.896,0.206,1.265,0.361v-0.638c0-0.736-0.209-1.303-0.627-1.7
			c-0.418-0.396-1.038-0.595-1.86-0.595c-0.595,0-1.176,0.106-1.742,0.318c-0.567,0.213-1.148,0.524-1.743,0.936l-0.872-1.807
			c1.431-0.949,2.975-1.424,4.633-1.424c1.601,0,2.844,0.394,3.729,1.18s1.329,1.923,1.329,3.411v3.464
			c0,0.297,0.053,0.51,0.159,0.638c0.106,0.127,0.28,0.198,0.521,0.212v2.423c-0.481,0.099-0.9,0.148-1.254,0.148
			c-0.539,0-0.953-0.12-1.243-0.361c-0.291-0.24-0.471-0.56-0.542-0.956l-0.064-0.616c-0.496,0.652-1.098,1.147-1.806,1.487
			C30.594,120.177,29.836,120.347,29.029,120.347z M29.836,118.264c0.482,0,0.938-0.085,1.371-0.255
			c0.432-0.17,0.768-0.396,1.009-0.68c0.312-0.241,0.468-0.511,0.468-0.808v-1.275c-0.34-0.128-0.709-0.23-1.105-0.309
			c-0.396-0.077-0.779-0.116-1.147-0.116c-0.737,0-1.339,0.166-1.806,0.499c-0.468,0.333-0.702,0.755-0.702,1.265
			c0,0.481,0.184,0.882,0.553,1.2C28.845,118.104,29.298,118.264,29.836,118.264z"/>
		<path class="st1" d="M44.819,111.463c-0.864,0.015-1.636,0.181-2.316,0.5c-0.68,0.318-1.169,0.797-1.466,1.435v6.736h-2.848
			v-11.136h2.614v2.38c0.198-0.382,0.432-0.726,0.701-1.03s0.56-0.57,0.872-0.797c0.312-0.227,0.627-0.4,0.946-0.521
			c0.318-0.12,0.627-0.181,0.924-0.181c0.156,0,0.272,0,0.351,0c0.078,0,0.152,0.007,0.223,0.021V111.463z"/>
		<path class="st1" d="M56.762,120.134h-2.848v-6.248c0-0.893-0.156-1.544-0.467-1.955c-0.312-0.41-0.744-0.616-1.296-0.616
			c-0.284,0-0.574,0.057-0.871,0.17c-0.298,0.113-0.578,0.273-0.84,0.479s-0.499,0.449-0.712,0.733
			c-0.212,0.283-0.368,0.595-0.467,0.935v6.503h-2.848v-11.136h2.571v2.062c0.411-0.708,1.006-1.261,1.785-1.657
			c0.779-0.396,1.658-0.596,2.635-0.596c0.694,0,1.261,0.128,1.7,0.383c0.439,0.255,0.779,0.588,1.02,0.999
			c0.241,0.411,0.407,0.878,0.5,1.402c0.092,0.524,0.138,1.056,0.138,1.594V120.134z"/>
		<path class="st1" d="M59.248,107.446v-2.826h2.848v2.826H59.248z M59.248,120.134v-11.136h2.848v11.136H59.248z"/>
		<path class="st1" d="M75.016,120.134h-2.848v-6.248c0-0.893-0.156-1.544-0.467-1.955c-0.312-0.41-0.744-0.616-1.296-0.616
			c-0.284,0-0.574,0.057-0.871,0.17c-0.298,0.113-0.578,0.273-0.84,0.479s-0.499,0.449-0.712,0.733
			c-0.212,0.283-0.368,0.595-0.467,0.935v6.503h-2.848v-11.136h2.571v2.062c0.411-0.708,1.006-1.261,1.785-1.657
			c0.779-0.396,1.658-0.596,2.635-0.596c0.694,0,1.261,0.128,1.7,0.383c0.439,0.255,0.779,0.588,1.02,0.999
			c0.241,0.411,0.407,0.878,0.5,1.402c0.092,0.524,0.138,1.056,0.138,1.594V120.134z"/>
		<path class="st1" d="M81.859,120.197c-0.751,0-1.431-0.148-2.04-0.446c-0.609-0.297-1.137-0.704-1.583-1.222
			c-0.446-0.517-0.79-1.115-1.03-1.796c-0.241-0.68-0.361-1.402-0.361-2.167c0-0.808,0.127-1.559,0.382-2.253
			s0.609-1.304,1.062-1.828c0.453-0.523,0.999-0.935,1.636-1.232c0.638-0.297,1.339-0.446,2.104-0.446
			c0.864,0,1.622,0.195,2.274,0.585c0.651,0.39,1.19,0.91,1.615,1.562v-1.955h2.486v10.604c0,0.821-0.156,1.559-0.467,2.21
			c-0.312,0.651-0.741,1.204-1.286,1.658c-0.545,0.453-1.197,0.8-1.955,1.041c-0.758,0.24-1.583,0.361-2.476,0.361
			c-1.219,0-2.242-0.202-3.071-0.605c-0.829-0.404-1.541-0.975-2.136-1.711l1.551-1.509c0.425,0.523,0.959,0.935,1.604,1.232
			c0.645,0.298,1.328,0.446,2.051,0.446c0.439,0,0.861-0.061,1.265-0.181c0.403-0.121,0.761-0.309,1.073-0.563
			s0.556-0.581,0.733-0.978c0.177-0.396,0.266-0.864,0.266-1.402V118.2c-0.369,0.638-0.886,1.13-1.551,1.477
			C83.339,120.024,82.624,120.197,81.859,120.197z M82.815,117.924c0.311,0,0.609-0.05,0.892-0.149
			c0.284-0.099,0.545-0.233,0.787-0.403c0.241-0.17,0.453-0.368,0.638-0.595c0.184-0.227,0.326-0.468,0.425-0.723v-2.656
			c-0.255-0.651-0.655-1.176-1.201-1.573c-0.545-0.396-1.116-0.595-1.711-0.595c-0.439,0-0.836,0.096-1.19,0.287
			c-0.354,0.191-0.659,0.446-0.914,0.765c-0.255,0.319-0.45,0.684-0.584,1.095c-0.135,0.411-0.202,0.836-0.202,1.275
			c0,0.453,0.078,0.878,0.234,1.274c0.156,0.397,0.372,0.744,0.648,1.042c0.276,0.297,0.599,0.531,0.967,0.701
			C81.972,117.839,82.376,117.924,82.815,117.924z"/>
		<path class="st1" d="M107.041,107.617h-4.824v12.517h-2.912v-12.517h-4.824v-2.572h12.56V107.617z"/>
		<path class="st1" d="M111.376,120.347c-0.893,0-1.7-0.152-2.423-0.457c-0.722-0.305-1.339-0.719-1.849-1.243
			c-0.51-0.524-0.903-1.134-1.18-1.828c-0.276-0.693-0.414-1.424-0.414-2.188c0-0.793,0.134-1.541,0.404-2.242
			c0.269-0.701,0.659-1.317,1.168-1.849c0.51-0.531,1.13-0.953,1.86-1.265c0.729-0.312,1.547-0.468,2.454-0.468
			s1.718,0.156,2.434,0.468c0.715,0.312,1.324,0.729,1.828,1.254c0.502,0.524,0.885,1.134,1.147,1.827
			c0.262,0.694,0.393,1.417,0.393,2.168c0,0.185-0.003,0.361-0.011,0.531s-0.025,0.312-0.053,0.425h-8.607
			c0.042,0.439,0.149,0.829,0.319,1.169s0.389,0.631,0.659,0.871c0.269,0.241,0.574,0.426,0.914,0.553
			c0.34,0.128,0.694,0.191,1.062,0.191c0.567,0,1.102-0.138,1.604-0.414s0.847-0.642,1.031-1.095l2.444,0.68
			c-0.411,0.851-1.066,1.548-1.965,2.094C113.696,120.073,112.623,120.347,111.376,120.347z M114.267,113.631
			c-0.071-0.836-0.379-1.505-0.924-2.008c-0.546-0.503-1.208-0.755-1.987-0.755c-0.382,0-0.74,0.067-1.073,0.202
			s-0.626,0.322-0.882,0.562c-0.255,0.241-0.464,0.532-0.627,0.872s-0.258,0.715-0.287,1.126H114.267z"/>
		<path class="st1" d="M118.241,114.566c0-0.779,0.134-1.517,0.404-2.211c0.269-0.693,0.659-1.303,1.168-1.827
			c0.51-0.524,1.126-0.942,1.849-1.254s1.537-0.468,2.444-0.468c1.218,0,2.256,0.263,3.113,0.786
			c0.857,0.524,1.498,1.212,1.923,2.062l-2.784,0.851c-0.241-0.411-0.56-0.727-0.956-0.946c-0.397-0.219-0.836-0.329-1.318-0.329
			c-0.411,0-0.793,0.082-1.147,0.244c-0.354,0.163-0.663,0.39-0.924,0.681c-0.262,0.29-0.468,0.641-0.616,1.052
			c-0.149,0.411-0.223,0.864-0.223,1.36s0.078,0.949,0.234,1.359c0.155,0.411,0.364,0.766,0.626,1.062
			c0.262,0.298,0.57,0.528,0.925,0.691c0.354,0.163,0.729,0.244,1.126,0.244c0.51,0,0.981-0.128,1.414-0.383
			c0.432-0.255,0.733-0.566,0.903-0.935l2.784,0.85c-0.383,0.851-1.013,1.545-1.892,2.083s-1.934,0.808-3.167,0.808
			c-0.907,0-1.721-0.156-2.444-0.468c-0.722-0.312-1.339-0.733-1.849-1.265c-0.51-0.531-0.903-1.147-1.18-1.849
			C118.379,116.064,118.241,115.331,118.241,114.566z"/>
		<path class="st1" d="M141.276,120.134h-2.848v-6.248c0-0.878-0.163-1.526-0.489-1.944s-0.786-0.627-1.381-0.627
			c-0.255,0-0.524,0.057-0.807,0.17c-0.284,0.113-0.553,0.273-0.808,0.479c-0.255,0.205-0.489,0.449-0.702,0.733
			c-0.212,0.283-0.368,0.595-0.467,0.935v6.503h-2.848V104.62h2.848v6.439c0.411-0.723,0.967-1.278,1.668-1.668
			c0.702-0.39,1.477-0.585,2.327-0.585c0.723,0,1.311,0.124,1.764,0.372c0.453,0.248,0.807,0.577,1.062,0.988
			c0.255,0.411,0.432,0.879,0.531,1.402c0.099,0.524,0.148,1.062,0.148,1.615V120.134z"/>
		<path class="st1" d="M154.112,120.134h-2.848v-6.248c0-0.893-0.155-1.544-0.467-1.955c-0.312-0.41-0.744-0.616-1.296-0.616
			c-0.284,0-0.574,0.057-0.871,0.17c-0.298,0.113-0.578,0.273-0.84,0.479s-0.499,0.449-0.712,0.733
			c-0.212,0.283-0.368,0.595-0.467,0.935v6.503h-2.848v-11.136h2.571v2.062c0.411-0.708,1.006-1.261,1.785-1.657
			c0.779-0.396,1.658-0.596,2.635-0.596c0.694,0,1.261,0.128,1.7,0.383c0.438,0.255,0.779,0.588,1.02,0.999
			c0.241,0.411,0.407,0.878,0.5,1.402c0.092,0.524,0.138,1.056,0.138,1.594V120.134z"/>
		<path class="st1" d="M161.741,120.347c-0.907,0-1.722-0.156-2.444-0.468s-1.335-0.733-1.838-1.265s-0.89-1.144-1.158-1.838
			c-0.27-0.694-0.404-1.424-0.404-2.189c0-0.778,0.135-1.516,0.404-2.21c0.269-0.694,0.655-1.307,1.158-1.838
			s1.115-0.953,1.838-1.265s1.537-0.468,2.444-0.468c0.906,0,1.718,0.156,2.433,0.468c0.716,0.312,1.325,0.733,1.828,1.265
			s0.889,1.144,1.158,1.838c0.269,0.694,0.403,1.432,0.403,2.21c0,0.766-0.135,1.495-0.403,2.189
			c-0.27,0.694-0.652,1.307-1.147,1.838c-0.496,0.531-1.105,0.953-1.828,1.265S162.647,120.347,161.741,120.347z M158.829,114.587
			c0,0.496,0.075,0.946,0.224,1.35c0.148,0.404,0.354,0.755,0.616,1.052c0.262,0.298,0.57,0.528,0.925,0.691
			c0.354,0.163,0.736,0.244,1.147,0.244c0.41,0,0.793-0.081,1.147-0.244c0.354-0.163,0.662-0.394,0.924-0.691
			c0.263-0.297,0.468-0.651,0.616-1.062c0.149-0.41,0.224-0.863,0.224-1.359c0-0.481-0.074-0.928-0.224-1.339
			c-0.148-0.411-0.354-0.766-0.616-1.062c-0.262-0.298-0.57-0.528-0.924-0.691c-0.354-0.162-0.737-0.244-1.147-0.244
			c-0.411,0-0.794,0.085-1.147,0.255c-0.354,0.17-0.663,0.404-0.925,0.701c-0.263,0.298-0.468,0.652-0.616,1.062
			C158.904,113.659,158.829,114.105,158.829,114.587z"/>
		<path class="st1" d="M169.455,104.62h2.848v11.943c0,0.411,0.099,0.729,0.297,0.956c0.198,0.228,0.481,0.341,0.851,0.341
			c0.17,0,0.357-0.028,0.562-0.086c0.206-0.056,0.4-0.127,0.585-0.212l0.383,2.168c-0.383,0.184-0.829,0.325-1.339,0.425
			c-0.511,0.099-0.971,0.148-1.382,0.148c-0.893,0-1.583-0.237-2.072-0.712c-0.488-0.475-0.732-1.15-0.732-2.029V104.62z"/>
		<path class="st1" d="M181.356,120.347c-0.907,0-1.722-0.156-2.444-0.468s-1.335-0.733-1.838-1.265s-0.89-1.144-1.158-1.838
			c-0.27-0.694-0.404-1.424-0.404-2.189c0-0.778,0.135-1.516,0.404-2.21c0.269-0.694,0.655-1.307,1.158-1.838
			s1.115-0.953,1.838-1.265s1.537-0.468,2.444-0.468c0.906,0,1.718,0.156,2.433,0.468c0.716,0.312,1.325,0.733,1.828,1.265
			s0.889,1.144,1.158,1.838c0.269,0.694,0.403,1.432,0.403,2.21c0,0.766-0.135,1.495-0.403,2.189
			c-0.27,0.694-0.652,1.307-1.147,1.838c-0.496,0.531-1.105,0.953-1.828,1.265S182.263,120.347,181.356,120.347z M178.444,114.587
			c0,0.496,0.075,0.946,0.224,1.35c0.148,0.404,0.354,0.755,0.616,1.052c0.262,0.298,0.57,0.528,0.925,0.691
			c0.354,0.163,0.736,0.244,1.147,0.244c0.41,0,0.793-0.081,1.147-0.244c0.354-0.163,0.662-0.394,0.924-0.691
			c0.263-0.297,0.468-0.651,0.616-1.062c0.149-0.41,0.224-0.863,0.224-1.359c0-0.481-0.074-0.928-0.224-1.339
			c-0.148-0.411-0.354-0.766-0.616-1.062c-0.262-0.298-0.57-0.528-0.924-0.691c-0.354-0.162-0.737-0.244-1.147-0.244
			c-0.411,0-0.794,0.085-1.147,0.255c-0.354,0.17-0.663,0.404-0.925,0.701c-0.263,0.298-0.468,0.652-0.616,1.062
			C178.52,113.659,178.444,114.105,178.444,114.587z"/>
		<path class="st1" d="M193.448,120.197c-0.752,0-1.432-0.148-2.041-0.446c-0.609-0.297-1.137-0.704-1.583-1.222
			c-0.446-0.517-0.79-1.115-1.03-1.796c-0.241-0.68-0.361-1.402-0.361-2.167c0-0.808,0.127-1.559,0.383-2.253
			c0.255-0.694,0.608-1.304,1.062-1.828c0.453-0.523,0.998-0.935,1.636-1.232c0.638-0.297,1.339-0.446,2.104-0.446
			c0.863,0,1.622,0.195,2.273,0.585s1.19,0.91,1.615,1.562v-1.955h2.486v10.604c0,0.821-0.156,1.559-0.468,2.21
			s-0.74,1.204-1.285,1.658c-0.546,0.453-1.197,0.8-1.955,1.041c-0.759,0.24-1.584,0.361-2.477,0.361
			c-1.218,0-2.241-0.202-3.07-0.605c-0.829-0.404-1.541-0.975-2.136-1.711l1.552-1.509c0.425,0.523,0.959,0.935,1.604,1.232
			s1.329,0.446,2.051,0.446c0.439,0,0.861-0.061,1.265-0.181c0.404-0.121,0.762-0.309,1.073-0.563s0.556-0.581,0.733-0.978
			c0.177-0.396,0.266-0.864,0.266-1.402V118.2c-0.368,0.638-0.886,1.13-1.552,1.477
			C194.928,120.024,194.213,120.197,193.448,120.197z M194.404,117.924c0.312,0,0.608-0.05,0.893-0.149
			c0.283-0.099,0.545-0.233,0.786-0.403c0.24-0.17,0.453-0.368,0.638-0.595c0.184-0.227,0.325-0.468,0.425-0.723v-2.656
			c-0.255-0.651-0.655-1.176-1.201-1.573c-0.545-0.396-1.115-0.595-1.71-0.595c-0.439,0-0.836,0.096-1.19,0.287
			s-0.659,0.446-0.914,0.765c-0.255,0.319-0.449,0.684-0.584,1.095s-0.202,0.836-0.202,1.275c0,0.453,0.078,0.878,0.234,1.274
			c0.155,0.397,0.371,0.744,0.647,1.042c0.276,0.297,0.599,0.531,0.967,0.701S193.965,117.924,194.404,117.924z"/>
		<path class="st1" d="M202.798,122.302c0.24,0.07,0.475,0.123,0.701,0.159c0.227,0.035,0.418,0.053,0.573,0.053
			c0.185,0,0.354-0.035,0.511-0.106c0.155-0.07,0.297-0.194,0.425-0.371c0.128-0.178,0.255-0.422,0.383-0.733
			c0.127-0.312,0.262-0.701,0.403-1.169l-4.398-11.136h2.933l3.018,8.671l2.678-8.671h2.678l-4.676,13.346
			c-0.27,0.779-0.729,1.417-1.381,1.913c-0.652,0.495-1.46,0.743-2.423,0.743c-0.227,0-0.457-0.018-0.69-0.053
			c-0.234-0.035-0.479-0.096-0.733-0.181V122.302z"/>
		<path class="st1" d="M228.873,120.134l-1.19-1.254c-0.623,0.481-1.296,0.847-2.019,1.095c-0.723,0.247-1.466,0.372-2.231,0.372
			c-0.779,0-1.484-0.121-2.114-0.361c-0.631-0.241-1.166-0.566-1.604-0.978c-0.439-0.411-0.779-0.89-1.021-1.435
			c-0.24-0.546-0.361-1.116-0.361-1.711c0-0.468,0.071-0.899,0.213-1.296s0.337-0.762,0.585-1.095
			c0.247-0.333,0.531-0.641,0.85-0.925c0.318-0.283,0.655-0.545,1.01-0.786c-0.609-0.68-1.038-1.265-1.286-1.753
			c-0.248-0.489-0.372-1.002-0.372-1.541c0-0.538,0.106-1.03,0.319-1.477c0.212-0.446,0.502-0.829,0.871-1.147
			c0.368-0.319,0.804-0.563,1.307-0.733s1.052-0.255,1.647-0.255c0.523,0,1.026,0.07,1.509,0.212
			c0.481,0.142,0.906,0.351,1.274,0.627c0.369,0.276,0.666,0.624,0.893,1.041c0.227,0.419,0.341,0.903,0.341,1.456
			c0,0.822-0.241,1.541-0.723,2.157c-0.482,0.616-1.099,1.193-1.85,1.731l2.891,3.019c0.213-0.454,0.379-0.949,0.499-1.488
			c0.12-0.538,0.181-1.119,0.181-1.742h2.316c-0.014,1.006-0.135,1.92-0.361,2.741c-0.227,0.822-0.545,1.572-0.956,2.253
			l3.124,3.272H228.873z M223.709,118.115c0.878,0,1.692-0.291,2.444-0.872l-3.485-3.676c-0.496,0.354-0.886,0.715-1.169,1.084
			c-0.283,0.368-0.425,0.779-0.425,1.232c0,0.297,0.063,0.584,0.191,0.86c0.127,0.276,0.308,0.514,0.541,0.712
			c0.234,0.198,0.514,0.358,0.84,0.479S223.326,118.115,223.709,118.115z M221.924,108.382c0,0.128,0.021,0.252,0.063,0.372
			c0.043,0.12,0.113,0.252,0.213,0.393c0.099,0.143,0.23,0.306,0.394,0.489c0.162,0.185,0.371,0.411,0.627,0.68
			c0.538-0.368,0.948-0.712,1.232-1.03c0.283-0.319,0.425-0.67,0.425-1.052c0-0.383-0.131-0.691-0.394-0.925
			c-0.262-0.233-0.599-0.351-1.009-0.351c-0.454,0-0.826,0.138-1.116,0.414S221.924,107.985,221.924,108.382z"/>
		<path class="st1" d="M251.59,120.134v-9.988l-3.889,7.438h-1.594l-3.89-7.438v9.988h-2.933v-15.089h3.146l4.463,8.586l4.505-8.586
			h3.124v15.089H251.59z"/>
		<path class="st1" d="M262.406,120.347c-0.893,0-1.699-0.152-2.422-0.457s-1.339-0.719-1.85-1.243
			c-0.51-0.524-0.902-1.134-1.179-1.828c-0.276-0.693-0.415-1.424-0.415-2.188c0-0.793,0.135-1.541,0.404-2.242
			c0.269-0.701,0.658-1.317,1.169-1.849c0.51-0.531,1.129-0.953,1.859-1.265c0.729-0.312,1.548-0.468,2.454-0.468
			s1.718,0.156,2.434,0.468c0.715,0.312,1.324,0.729,1.827,1.254s0.886,1.134,1.147,1.827c0.263,0.694,0.394,1.417,0.394,2.168
			c0,0.185-0.004,0.361-0.011,0.531s-0.024,0.312-0.053,0.425h-8.607c0.043,0.439,0.149,0.829,0.319,1.169s0.39,0.631,0.658,0.871
			c0.27,0.241,0.574,0.426,0.914,0.553c0.34,0.128,0.694,0.191,1.062,0.191c0.566,0,1.102-0.138,1.604-0.414
			s0.847-0.642,1.031-1.095l2.443,0.68c-0.411,0.851-1.066,1.548-1.966,2.094C264.727,120.073,263.653,120.347,262.406,120.347z
			 M265.297,113.631c-0.071-0.836-0.379-1.505-0.925-2.008c-0.545-0.503-1.208-0.755-1.986-0.755c-0.383,0-0.741,0.067-1.073,0.202
			c-0.333,0.135-0.627,0.322-0.882,0.562c-0.255,0.241-0.465,0.532-0.627,0.872c-0.163,0.34-0.259,0.715-0.287,1.126H265.297z"/>
		<path class="st1" d="M274.584,120.347c-0.766,0-1.474-0.149-2.125-0.446c-0.652-0.298-1.212-0.709-1.68-1.233
			c-0.467-0.523-0.832-1.137-1.094-1.838c-0.263-0.701-0.394-1.456-0.394-2.263c0-0.808,0.124-1.559,0.372-2.253
			s0.591-1.304,1.03-1.828c0.439-0.523,0.964-0.935,1.573-1.232c0.608-0.297,1.274-0.446,1.997-0.446
			c0.821,0,1.562,0.199,2.221,0.596c0.659,0.396,1.173,0.913,1.541,1.551v-6.333h2.848v12.241c0,0.297,0.05,0.51,0.148,0.638
			c0.1,0.127,0.27,0.198,0.511,0.212v2.423c-0.496,0.099-0.9,0.148-1.212,0.148c-0.51,0-0.928-0.127-1.254-0.382
			c-0.326-0.256-0.51-0.588-0.553-0.999l-0.063-0.701c-0.411,0.708-0.967,1.243-1.668,1.604S275.349,120.347,274.584,120.347z
			 M275.327,117.924c0.27,0,0.546-0.046,0.829-0.139c0.283-0.092,0.545-0.223,0.786-0.393s0.457-0.368,0.648-0.596
			c0.191-0.226,0.336-0.474,0.436-0.743v-2.656c-0.113-0.312-0.273-0.599-0.479-0.861c-0.205-0.262-0.438-0.488-0.701-0.68
			c-0.262-0.191-0.538-0.344-0.828-0.457c-0.291-0.113-0.578-0.17-0.861-0.17c-0.425,0-0.818,0.093-1.18,0.276
			c-0.36,0.185-0.669,0.436-0.924,0.754c-0.255,0.319-0.454,0.685-0.595,1.095c-0.143,0.411-0.213,0.836-0.213,1.275
			c0,0.468,0.077,0.899,0.233,1.296c0.156,0.397,0.368,0.744,0.638,1.042c0.27,0.297,0.592,0.531,0.967,0.701
			S274.874,117.924,275.327,117.924z"/>
		<path class="st1" d="M283.679,107.446v-2.826h2.848v2.826H283.679z M283.679,120.134v-11.136h2.848v11.136H283.679z"/>
		<path class="st1" d="M292.137,120.347c-0.538,0-1.041-0.089-1.509-0.266c-0.467-0.178-0.871-0.426-1.211-0.744
			s-0.605-0.69-0.797-1.116c-0.191-0.425-0.287-0.892-0.287-1.402c0-0.523,0.117-1.009,0.351-1.455s0.56-0.825,0.978-1.138
			c0.418-0.312,0.917-0.556,1.498-0.732c0.581-0.178,1.219-0.266,1.913-0.266c0.495,0,0.98,0.042,1.455,0.127
			s0.896,0.206,1.265,0.361v-0.638c0-0.736-0.209-1.303-0.627-1.7c-0.418-0.396-1.038-0.595-1.859-0.595
			c-0.595,0-1.176,0.106-1.742,0.318c-0.567,0.213-1.147,0.524-1.743,0.936l-0.871-1.807c1.431-0.949,2.976-1.424,4.633-1.424
			c1.601,0,2.844,0.394,3.729,1.18s1.328,1.923,1.328,3.411v3.464c0,0.297,0.054,0.51,0.159,0.638
			c0.106,0.127,0.28,0.198,0.521,0.212v2.423c-0.482,0.099-0.9,0.148-1.254,0.148c-0.539,0-0.953-0.12-1.243-0.361
			c-0.291-0.24-0.472-0.56-0.542-0.956l-0.064-0.616c-0.496,0.652-1.098,1.147-1.806,1.487
			C293.702,120.177,292.944,120.347,292.137,120.347z M292.944,118.264c0.481,0,0.938-0.085,1.371-0.255
			c0.432-0.17,0.769-0.396,1.01-0.68c0.311-0.241,0.467-0.511,0.467-0.808v-1.275c-0.34-0.128-0.708-0.23-1.104-0.309
			c-0.397-0.077-0.779-0.116-1.147-0.116c-0.737,0-1.339,0.166-1.807,0.499s-0.701,0.755-0.701,1.265c0,0.481,0.184,0.882,0.553,1.2
			C291.953,118.104,292.406,118.264,292.944,118.264z"/>
	</g>
</g>
<g id="logo">
	<g>
		<path class="st1" d="M98.938,0.2v8.4c0,1.77-1.091,3.64-4.363,3.64c-2.967,0-4.363-1.41-4.363-3.64V0.2h2.705v8.27
			c0,1.46,0.676,2,1.658,2c1.178,0,1.724-0.73,1.724-2V0.2H98.938z"/>
		<path class="st1" d="M101.284,12.04V0.2h3.654l3.436,8.2l0,0V0.2h2.531v11.84h-3.567l-3.491-8.66l0,0v8.66H101.284z"/>
		<path class="st1" d="M113.326,12.04V0.2h2.705v11.84H113.326z"/>
		<path class="st1" d="M117.395,0.2h2.803l1.996,8.61l0,0l2.258-8.61h2.662L123.7,12.04h-3.163L117.395,0.2z"/>
		<path class="st1" d="M128.5,12.04V0.2h7.058v1.82h-4.363v2.92h4.014v1.82h-4.014v3.46h4.494v1.82H128.5z"/>
		<path class="st1" d="M140.226,12.04h-2.705V0.2h4.996c1.844,0,3.022,1.08,3.022,3.1c0,1.51-0.644,2.64-2.4,2.9l0,0
			c1.271-0.028,2.326,0.893,2.357,2.058c0.002,0.091-0.002,0.182-0.012,0.272c-0.035,1.167,0.067,2.333,0.305,3.48h-2.651
			c-0.269-0.74-0.365-1.524-0.284-2.3c0-1.41,0.142-2.6-1.931-2.6h-0.698V12.04z M140.226,5.31h1.2c1.091,0,1.374-1,1.374-1.73
			c0-1.14-0.513-1.56-1.374-1.56h-1.2V5.31z"/>
		<path class="st1" d="M151.156,12.24c-3.338,0-3.971-1.81-3.829-3.86h2.705c0,1.13,0,2.09,1.538,2.09
			c0.716,0.039,1.331-0.461,1.373-1.117c0.005-0.078,0.002-0.156-0.01-0.233c0-2.13-5.454-2.26-5.454-5.79
			c0-1.85,0.971-3.33,4.265-3.33c2.629,0,3.927,1.08,3.752,3.56h-2.629c0-0.89-0.164-1.79-1.254-1.79
			c-0.688-0.075-1.312,0.375-1.394,1.006c-0.011,0.084-0.012,0.17-0.002,0.254c0,2.25,5.454,2.05,5.454,5.78
			C155.672,11.88,153.218,12.24,151.156,12.24z"/>
		<path class="st1" d="M157.723,12.04V0.2h2.705v11.84H157.723z"/>
		<path class="st1" d="M170.519,0.2v2h-3v9.88h-2.705V2.16h-3.011v-2L170.519,0.2z"/>
		<path class="st1" d="M174.282,7.94L170.9,0.2h2.956l1.931,5l2.051-5h2.76l-3.611,7.74v4.1h-2.705L174.282,7.94z"/>
		<path class="st1" d="M185.943,6.12c0-3.14,0-6.12,4.461-6.12c4.462,0,4.462,3,4.462,6.12s0,6.12-4.462,6.12
			C185.943,12.24,185.943,9.22,185.943,6.12z M192.128,6.12c0-3-0.207-4.35-1.724-4.35s-1.669,1.31-1.669,4.35
			s0.196,4.35,1.713,4.35C191.964,10.47,192.128,9.15,192.128,6.12z"/>
		<path class="st1" d="M197.08,12.04V0.2h6.709v1.82h-4.003v3h3.829v1.85h-3.829v5.17H197.08z"/>
		<path class="st1" d="M208.152,0.2h2.782l1.68,8.27l0,0l2.04-8.31h3.185l1.963,8.31l0,0l1.658-8.27h2.651l-2.869,11.84h-2.989
			l-2.029-8.66l0,0l-2.182,8.66h-2.934L208.152,0.2z"/>
		<path class="st1" d="M225.333,12.04V0.2h2.673v11.84H225.333z"/>
		<path class="st1" d="M233.939,12.24c-3.338,0-3.971-1.81-3.829-3.86h2.705c0,1.13,0.055,2.09,1.538,2.09
			c0.716,0.039,1.331-0.461,1.373-1.117c0.005-0.078,0.002-0.156-0.01-0.233c0-2.13-5.454-2.26-5.454-5.79
			c0-1.85,0.971-3.33,4.254-3.33c2.64,0,3.938,1.08,3.763,3.56h-2.64c0-0.89-0.164-1.79-1.254-1.79
			c-0.688-0.075-1.312,0.375-1.394,1.006c-0.011,0.084-0.012,0.17-0.002,0.254c0,2.25,5.454,2.05,5.454,5.78
			C238.455,11.88,236.001,12.24,233.939,12.24z"/>
		<path class="st1" d="M240.386,6.12c0-3.14,0-6.12,4.451-6.12c2.76,0,3.872,1.39,3.763,3.94h-2.651c0-1.58-0.305-2.17-1.091-2.17
			c-1.516,0-1.713,1.31-1.713,4.35s0.131,4.35,1.691,4.35c1.254,0,1.2-1.48,1.244-2.42h2.651c0,3.17-1.374,4.19-3.905,4.19
			C240.386,12.24,240.386,9.22,240.386,6.12z"/>
		<path class="st1" d="M250.455,6.12c0-3.14,0-6.12,4.461-6.12c4.462,0,4.462,3,4.462,6.12s0,6.12-4.462,6.12
			C250.455,12.24,250.455,9.22,250.455,6.12z M256.64,6.12c0-3-0.207-4.35-1.724-4.35s-1.713,1.31-1.713,4.35s0.196,4.35,1.713,4.35
			C256.432,10.47,256.64,9.15,256.64,6.12z"/>
		<path class="st1" d="M261.657,12.04V0.2h3.654l3.436,8.2l0,0V0.2h2.531v11.84h-3.567l-3.491-8.66l0,0v8.66H261.657z"/>
		<path class="st1" d="M277.213,12.24c-3.349,0-3.971-1.81-3.829-3.86h2.705c0,1.13,0.055,2.09,1.538,2.09
			c0.716,0.034,1.326-0.471,1.363-1.127c0.004-0.074,0.001-0.149-0.01-0.223c0-2.13-5.454-2.26-5.454-5.79
			c0-1.85,0.96-3.33,4.254-3.33c2.629,0,3.938,1.08,3.763,3.56h-2.629c0-0.89-0.164-1.79-1.254-1.79
			c-0.688-0.075-1.312,0.375-1.394,1.006c-0.011,0.084-0.012,0.17-0.002,0.254c0,2.25,5.454,2.05,5.454,5.78
			C281.729,11.88,279.274,12.24,277.213,12.24z"/>
		<path class="st1" d="M283.779,12.04V0.2h2.705v11.84H283.779z"/>
		<path class="st1" d="M288.895,12.04V0.2h3.654l3.436,8.2l0,0V0.2h2.531v11.84h-3.534l-3.523-8.66l0,0v8.66H288.895z"/>
		<path class="st1" d="M111.188,28.19c2.029,2.073,3.043,4.953,3.043,8.64c0,0.66,0,1.17,0,1.53H96.778
			c0.625,2.69,3.275,4.574,6.272,4.46c1.122,0.002,2.234-0.199,3.272-0.59c1.063-0.409,2.027-1.007,2.836-1.76l3.654,3.39
			c-1.233,1.27-2.767,2.266-4.483,2.91c-1.871,0.691-3.874,1.031-5.89,1c-2.326,0.049-4.628-0.435-6.698-1.41
			c-1.849-0.915-3.366-2.305-4.363-4c-1.073-1.806-1.621-3.834-1.593-5.89c-0.056-2.093,0.49-4.162,1.582-6
			c1.023-1.695,2.557-3.083,4.418-4c1.994-0.979,4.229-1.471,6.49-1.43C106.196,25.073,109.167,26.123,111.188,28.19z M107.698,34.6
			c0-1.311-0.551-2.571-1.538-3.52c-1.024-0.904-2.409-1.381-3.829-1.32c-1.395-0.034-2.749,0.433-3.774,1.3
			c-1.054,0.949-1.727,2.196-1.909,3.54H107.698z"/>
		<path class="st1" d="M114.723,25.3h7.941l4.462,6.74l4.734-6.74h7.636l-7.712,10.83l8.258,11.41h-8.029l-4.876-7.28l-5.323,7.28
			h-7.636l8.388-11.37L114.723,25.3z"/>
		<path class="st1" d="M158.465,46.3c-0.93,0.519-1.937,0.913-2.989,1.17c-1.067,0.263-2.167,0.397-3.272,0.4
			c-2.017,0.076-3.989-0.561-5.509-1.78c-1.477-1.335-2.249-3.192-2.116-5.09V30.67h-3.382v-4.38h3.382v-6.12h6.905v6.12h6.545v4.42
			h-6.545v9.18c0,1.71,0.731,2.56,2.182,2.56c1.18-0.035,2.337-0.315,3.382-0.82L158.465,46.3z"/>
		<path class="st1" d="M181.536,28.19c2.029,2.073,3.043,4.953,3.043,8.64c0,0.66,0,1.17,0,1.53h-17.453
			c0.625,2.69,3.275,4.574,6.272,4.46c1.123,0.003,2.235-0.198,3.272-0.59c1.063-0.409,2.027-1.007,2.836-1.76l3.654,3.39
			c-1.233,1.27-2.767,2.266-4.483,2.91c-1.871,0.692-3.874,1.032-5.89,1c-2.326,0.049-4.628-0.435-6.698-1.41
			c-1.849-0.915-3.366-2.305-4.363-4c-1.073-1.806-1.621-3.834-1.593-5.89c-0.052-2.092,0.493-4.161,1.582-6
			c1.026-1.692,2.559-3.08,4.418-4c2.01-0.987,4.265-1.479,6.545-1.43C176.554,25.073,179.507,26.123,181.536,28.19z M178.045,34.6
			c0-1.311-0.551-2.571-1.538-3.52c-1.024-0.904-2.409-1.381-3.829-1.32c-1.392-0.037-2.744,0.43-3.763,1.3
			c-1.058,0.947-1.735,2.195-1.92,3.54H178.045z"/>
		<path class="st1" d="M210.672,27.36c1.665,1.694,2.532,3.923,2.411,6.2v14h-6.894V35.47c0.076-1.223-0.387-2.424-1.287-3.33
			c-0.922-0.843-2.191-1.286-3.491-1.22c-1.555-0.073-3.064,0.495-4.112,1.55c-1.029,1.141-1.561,2.591-1.494,4.07v11h-6.938V25.3
			h6.938v3.88c1.694-2.667,4.491-4.043,8.388-4.13C206.611,24.947,208.965,25.786,210.672,27.36z"/>
		<path class="st1" d="M242.753,16.86v30.68h-6.894v-3.27c-0.831,1.116-1.957,2.021-3.272,2.63c-1.377,0.608-2.89,0.913-4.418,0.89
			c-2.113,0.041-4.196-0.454-6.021-1.43c-1.733-0.948-3.128-2.338-4.014-4c-0.979-1.871-1.465-3.926-1.418-6
			c-0.021-2.042,0.484-4.06,1.473-5.89c0.868-1.661,2.248-3.052,3.971-4c1.791-0.951,3.832-1.435,5.901-1.4
			c3.102-0.146,6.069,1.18,7.854,3.51V16.86H242.753z M234.158,40.94c1.177-1.232,1.787-2.834,1.702-4.47
			c0.076-1.625-0.533-3.215-1.702-4.44c-1.101-1.142-2.702-1.773-4.363-1.72c-1.659-0.042-3.255,0.587-4.363,1.72
			c-2.31,2.581-2.31,6.299,0,8.88c1.108,1.133,2.704,1.762,4.363,1.72C231.451,42.691,233.05,42.071,234.158,40.94z"/>
		<path class="st1" d="M268.748,28.19c2.029,2.073,3.043,4.953,3.043,8.64c0,0.66,0,1.17,0,1.53h-17.442
			c0.311,1.302,1.105,2.465,2.247,3.29c1.157,0.792,2.571,1.205,4.014,1.17c1.123,0.003,2.235-0.198,3.272-0.59
			c1.063-0.409,2.027-1.007,2.836-1.76l3.654,3.39c-1.233,1.27-2.767,2.266-4.483,2.91c-1.87,0.693-3.874,1.033-5.89,1
			c-2.326,0.049-4.628-0.435-6.698-1.41c-1.869-0.907-3.406-2.298-4.418-4c-1.05-1.811-1.576-3.839-1.527-5.89
			c-0.056-2.091,0.486-4.16,1.571-6c1.027-1.695,2.565-3.084,4.429-4c1.994-0.98,4.229-1.472,6.49-1.43
			C263.752,25.073,266.719,26.123,268.748,28.19z M265.257,34.6c0.006-1.312-0.546-2.574-1.538-3.52
			c-1.024-0.904-2.409-1.381-3.829-1.32c-1.392-0.037-2.744,0.43-3.763,1.3c-1.066,0.944-1.75,2.192-1.942,3.54L265.257,34.6z"/>
		<path class="st1" d="M300,16.86v30.68h-6.872v-3.27c-0.827,1.119-1.954,2.025-3.272,2.63c-1.376,0.61-2.889,0.915-4.418,0.89
			c-2.112,0.039-4.195-0.456-6.021-1.43c-1.731-0.951-3.125-2.34-4.014-4c-0.979-1.871-1.465-3.926-1.418-6
			c-0.033-2.038,0.452-4.054,1.418-5.89c0.868-1.661,2.248-3.052,3.971-4c1.791-0.951,3.832-1.435,5.901-1.4
			c3.103-0.148,6.07,1.178,7.854,3.51V16.86H300z M291.415,40.94c1.177-1.233,1.79-2.834,1.713-4.47
			c0.075-1.624-0.53-3.212-1.691-4.44c-2.3-2.209-6.119-2.29-8.529-0.182c-0.068,0.059-0.134,0.12-0.198,0.182
			c-2.31,2.581-2.31,6.299,0,8.88c2.3,2.209,6.119,2.29,8.529,0.182c0.068-0.059,0.134-0.12,0.198-0.182L291.415,40.94z"/>
		<path class="st1" d="M102.331,59.4c-1.597-0.025-3.172,0.345-4.56,1.07c-1.341,0.704-2.435,1.745-3.152,3
			c-0.759,1.364-1.134,2.88-1.091,4.41c-0.041,1.533,0.334,3.052,1.091,4.42c0.718,1.255,1.811,2.296,3.152,3
			c1.388,0.725,2.963,1.095,4.56,1.07c1.443,0.014,2.875-0.238,4.211-0.74c1.261-0.469,2.382-1.206,3.272-2.15l1.713,1.65
			c-1.072,1.173-2.433,2.095-3.971,2.69c-1.685,0.648-3.497,0.971-5.323,0.95c-2.111,0.033-4.195-0.443-6.043-1.38
			c-1.758-0.914-3.202-2.262-4.167-3.89c-2.021-3.535-2.021-7.755,0-11.29c0.966-1.625,2.41-2.969,4.167-3.88
			c1.846-0.943,3.93-1.423,6.043-1.39c1.718-0.018,3.425,0.264,5.029,0.83c1.461,0.515,2.791,1.302,3.905,2.31l-1.713,1.86
			C107.551,60.246,104.982,59.33,102.331,59.4z"/>
		<path class="st1" d="M132.274,78.71v-3.64c-0.903,1.24-2.17,2.221-3.654,2.83c-1.639,0.644-3.409,0.961-5.192,0.93
			c-1.458,0.03-2.901-0.262-4.211-0.85c-1.164-0.515-2.144-1.323-2.825-2.33c-0.664-1.01-1.008-2.17-0.993-3.35
			c-0.066-1.743,0.822-3.402,2.367-4.42c1.932-1.176,4.229-1.745,6.545-1.62h7.93v-1.65c0.108-1.493-0.502-2.954-1.669-4
			c-1.371-1.013-3.109-1.513-4.865-1.4c-2.787,0.077-5.469,0.991-7.636,2.6l-1.353-1.9c1.406-0.93,2.939-1.686,4.56-2.25
			c1.594-0.512,3.275-0.76,4.963-0.73c2.404-0.13,4.772,0.586,6.621,2c1.616,1.408,2.487,3.388,2.389,5.43v14.35L132.274,78.71z
			 M129.274,75.17c1.454-0.889,2.505-2.233,2.956-3.78v-3h-7.636c-1.649-0.076-3.288,0.27-4.734,1
			c-1.068,0.612-1.69,1.707-1.625,2.86c-0.046,1.207,0.532,2.364,1.56,3.12c1.18,0.827,2.64,1.245,4.123,1.18
			C125.815,76.598,127.683,76.117,129.274,75.17z"/>
		<path class="st1" d="M180.609,59.19c1.652,1.701,2.496,3.936,2.345,6.21v13.31h-3.065V66.06c0.116-1.765-0.54-3.499-1.822-4.82
			c-1.345-1.184-3.166-1.803-5.029-1.71c-2.267-0.051-4.441,0.825-5.934,2.39c-1.511,1.731-2.286,3.905-2.182,6.12v10.67h-3.022
			V66.06c0.118-1.767-0.542-3.503-1.833-4.82c-1.343-1.187-3.166-1.807-5.029-1.71c-2.271-0.054-4.45,0.822-5.945,2.39
			c-1.519,1.727-2.295,3.904-2.182,6.12v10.67h-3.011V57.04h3.022v5.09c0.68-1.595,1.91-2.943,3.502-3.84
			c1.718-0.902,3.671-1.362,5.65-1.33c2.003-0.077,3.977,0.454,5.618,1.51c1.518,1.06,2.568,2.587,2.956,4.3
			c0.593-1.768,1.824-3.298,3.491-4.34c1.781-1.008,3.841-1.526,5.934-1.49C176.499,56.824,178.867,57.639,180.609,59.19z"/>
		<path class="st1" d="M210.17,58.35c1.722,0.913,3.123,2.26,4.036,3.88c0.988,1.758,1.486,3.713,1.451,5.69
			c0.033,1.955-0.466,3.886-1.451,5.62c-0.918,1.608-2.309,2.948-4.014,3.87c-1.781,0.937-3.805,1.413-5.858,1.38
			c-1.99,0.044-3.956-0.413-5.683-1.32c-1.621-0.895-2.933-2.191-3.785-3.74v13h-3.022V57.04h3.022v5
			c0.828-1.558,2.137-2.858,3.763-3.74c1.715-0.919,3.675-1.387,5.661-1.35C206.353,56.92,208.385,57.403,210.17,58.35z
			 M208.305,75.3c1.334-0.712,2.426-1.751,3.152-3c1.499-2.776,1.499-6.034,0-8.81c-0.73-1.247-1.821-2.285-3.152-3
			c-1.384-0.735-2.96-1.112-4.56-1.09c-1.604-0.029-3.185,0.348-4.571,1.09c-1.33,0.72-2.423,1.757-3.163,3
			c-0.758,1.353-1.133,2.859-1.091,4.38c-0.042,1.537,0.333,3.059,1.091,4.43c0.726,1.249,1.818,2.288,3.152,3
			c1.399,0.738,2.99,1.115,4.603,1.09C205.359,76.408,206.927,76.032,208.305,75.3L208.305,75.3z"/>
		<path class="st1" d="M242.939,57.04v21.67h-3.065v-5.17c-0.683,1.617-1.909,2.993-3.502,3.93c-1.701,0.917-3.645,1.388-5.618,1.36
			c-2.428,0.119-4.801-0.697-6.545-2.25c-1.656-1.689-2.508-3.913-2.367-6.18V57.04h3.065V69.7c-0.116,1.748,0.536,3.466,1.811,4.77
			c1.344,1.187,3.165,1.809,5.029,1.72c2.276,0.075,4.467-0.8,5.956-2.38c1.515-1.736,2.291-3.919,2.182-6.14V57.04H242.939z"/>
		<path class="st1" d="M261.516,59.67c-1.064-0.281-2.165-0.426-3.272-0.43c-1.269-0.058-2.53,0.22-3.632,0.8
			c-0.915,0.515-1.451,1.447-1.396,2.43c-0.027,0.673,0.24,1.328,0.742,1.82c0.529,0.489,1.16,0.877,1.854,1.14
			c1.008,0.386,2.039,0.72,3.087,1c1.355,0.349,2.681,0.784,3.971,1.3c1.018,0.425,1.915,1.062,2.618,1.86
			c0.762,0.916,1.148,2.049,1.091,3.2c0.099,1.783-0.823,3.485-2.433,4.49c-1.806,1.079-3.932,1.621-6.087,1.55
			c-1.692,0.006-3.372-0.261-4.963-0.79c-1.5-0.465-2.87-1.227-4.014-2.23l1.211-2c1.065,0.867,2.297,1.546,3.632,2
			c1.358,0.493,2.805,0.747,4.265,0.75c1.371,0.055,2.729-0.261,3.905-0.91c0.98-0.575,1.553-1.584,1.505-2.65
			c0.045-0.733-0.23-1.452-0.764-2c-0.536-0.524-1.192-0.934-1.92-1.2c-0.764-0.29-1.822-0.63-3.174-1
			c-1.323-0.351-2.62-0.779-3.883-1.28c-0.981-0.412-1.844-1.028-2.52-1.8c-0.748-0.877-1.134-1.968-1.091-3.08
			c-0.105-1.708,0.777-3.342,2.323-4.3c1.727-1.015,3.753-1.521,5.803-1.45c1.324-0.002,2.643,0.167,3.916,0.5
			c1.193,0.3,2.333,0.758,3.382,1.36l-1.167,2.11C263.574,60.337,262.568,59.936,261.516,59.67z"/>
		<polygon class="st1" points="0,38.69 13.777,51.31 19.515,45.37 0,25.14 		"/>
		<path class="st1" d="M76.282,27.03l-10.254,9.44V22.68L41.473,0.19H15.937V5.9L0.022,13.36v7.63c4.909,0,12.741,0.14,12.741,0.14
			l23.366,24.23l0,0L19.657,62.47l3.556,17.29c0,0,42.542-0.62,43.055-0.16l12.545-50.19L76.282,27.03z M64.108,45.37L64.108,45.37
			L40.721,69.61c0,0-16.613,0.31-16.613,0l23.387-24.24L24.107,21.13c0-0.31,16.613,0,16.613,0l23.387,24.23l0,0V45.37z"/>
	</g>
</g>
</svg>
