<svg xmlns="http://www.w3.org/2000/svg" viewBox="0 0 60 60"><title>Artboard 1</title><polygon points="50.642 45.959 49.12 50.246 52.148 50.246 50.675 45.959 50.642 45.959" fill="#fff"/><path d="M36.259,46.287a2.507,2.507,0,0,0-1.039-.778,4.151,4.151,0,0,0-1.6-.27H31.792V52.6h2.291a3.308,3.308,0,0,0,1.08-.18,2.377,2.377,0,0,0,.932-.6,3,3,0,0,0,.655-1.088,4.8,4.8,0,0,0,.245-1.636,6.8,6.8,0,0,0-.172-1.6A3.169,3.169,0,0,0,36.259,46.287Z" fill="#fff"/><path d="M52.5,0H7.5A7.5,7.5,0,0,0,0,7.5v45A7.5,7.5,0,0,0,7.5,60h45A7.5,7.5,0,0,0,60,52.5V7.5A7.5,7.5,0,0,0,52.5,0ZM27.708,10.3,29.344,3.75h2.725l-1.584,6.332c-.342,1.371-.077,1.723,1.353,1.723h2.2L36.045,3.75h5.479l.466,7.233L46.053,3.75h2.9l.485,7.233,4.08-7.233h2.805L50.253,14.08H47.117l-.492-7.059L42.707,14.08H39.69l-1-10.029-2.5,10.029H31.056C28.094,14.08,27.031,13,27.708,10.3ZM45.651,28.584h1.757l-.794,3.237H42.7c-3.113,0-4.467-1.759-3.651-5.082l1.942-7.922H37.037l-4.87,4.992,3.949,8.012H31.125l-2.264-4.713-4.608,4.713H19.262l8-8.1-4.012-8.133h4.961l2.279,4.9,4.776-4.9H50.6l-.794,3.234h-4.53L43.664,25.38C43.112,27.63,43.463,28.584,45.651,28.584Zm.883,5.016-.94,3.825H21.667l.941-3.825ZM4.576,24.157c1.92-7.828,6.739-14.031,13.856-14.031h7.732l-.942,3.85H17.581c-3.359,0-6.093,4.234-7.133,7.714h12.88l-.946,3.852H9.474c-.945,3.975-.359,7.992,3.306,7.992h7.641l-.946,3.849H11.619c-2.682,0-4.693-.216-6.424-1.939C3.361,33.626,3.592,28.162,4.576,24.157ZM16.361,54.763H13.956v-8.28h-.033l-2.863,8.28H9.08l-2.864-8.2H6.183v8.2h-2.4V43.079H7.394l2.733,8.035h.033l2.585-8.035h3.616Zm11.127,0H18.619V43.079h8.738v2.16H21.188v2.5H26.85v2H21.188V52.6h6.3Zm11.749-3.551a5.172,5.172,0,0,1-.99,1.865,4.639,4.639,0,0,1-1.653,1.236,5.592,5.592,0,0,1-2.332.45H29.223V43.079h5.039a6.039,6.039,0,0,1,2.1.36,4.571,4.571,0,0,1,1.686,1.08,5,5,0,0,1,1.112,1.8,7.267,7.267,0,0,1,.4,2.537A8.1,8.1,0,0,1,39.237,51.212Zm4.68,3.551H41.348V43.079h2.569Zm9.785,0-.884-2.6H48.449l-.916,2.6H44.948l4.418-11.684H52l4.369,11.684Z" fill="#fff"/></svg>