<svg xmlns="http://www.w3.org/2000/svg" viewBox="0 0 77.643 65.1"><title>uws_logo</title><path d="M1.478.136V7.267c0,1.251.376,1.508.917,1.508.9,0,.982-.57,1-1.367V.136H4.674v6.9c0,1.277.013,2.954-2.241,2.954C.374,9.988.193,8.6.193,6.84V.136Z" transform="translate(0)" fill="#fff"/><polygon points="8.762 3.021 8.952 6.282 8.952 9.851 7.671 9.851 7.671 0.136 8.904 0.136 11.193 7.52 11.22 7.497 10.911 3.602 10.911 0.136 12.193 0.136 12.193 9.851 10.998 9.851 8.71 2.364 8.685 2.393 8.762 3.021" fill="#fff"/><rect x="15.405" y="0.136" width="1.285" height="9.715" fill="#fff"/><polygon points="20.631 0.136 21.744 7.442 21.768 7.442 21.833 6.837 22.351 3.563 22.949 0.136 24.176 0.136 22.263 9.851 21.226 9.851 19.338 0.136 20.631 0.136" fill="#fff"/><polygon points="30.137 0.136 30.137 1.258 27.954 1.258 27.954 4.31 29.907 4.31 29.907 5.431 27.954 5.431 27.954 8.731 30.137 8.731 30.137 9.851 26.671 9.851 26.671 0.136 30.137 0.136" fill="#fff"/><path d="M32.788,9.851H34.07V5.1H34.1l1.779,4.753h1.347l-1.8-4.727c1.073-.193,1.344-1.585,1.344-2.5C36.77.189,35.294.136,34.336.136H32.788ZM34.07,4.442V1.234h.211c1-.028,1.117.746,1.117,1.673,0,.98-.341,1.6-1.328,1.535" transform="translate(0)" fill="#fff"/><path d="M42.789,1.625A1.757,1.757,0,0,0,41.7,1.21,1.177,1.177,0,0,0,40.54,2.467,1.588,1.588,0,0,0,40.9,3.526L41.89,4.6a3.631,3.631,0,0,1,1.374,2.857,2.326,2.326,0,0,1-2.28,2.535,2.269,2.269,0,0,1-1.418-.462v-1.3a2.085,2.085,0,0,0,1.272.5c.806,0,1.142-.634,1.142-1.356,0-1.938-2.723-2.326-2.723-4.883A2.2,2.2,0,0,1,41.435,0,2.6,2.6,0,0,1,42.8.323Z" transform="translate(0)" fill="#fff"/><rect x="45.944" y="0.136" width="1.281" height="9.715" fill="#fff"/><polygon points="54.013 0.136 54.013 1.258 52.552 1.258 52.552 9.851 51.267 9.851 51.267 1.258 49.744 1.258 49.744 0.136 54.013 0.136" fill="#fff"/><polygon points="57.019 0.136 58.205 4.632 58.229 4.632 58.435 3.385 59.259 0.136 60.644 0.136 58.832 5.664 58.832 9.851 57.55 9.851 57.55 5.664 55.623 0.136 57.019 0.136" fill="#fff"/><path d="M69,0c-2.5,0-2.53,3.238-2.53,5S66.493,9.988,69,9.988,71.53,6.749,71.53,5,71.505,0,69,0m0,1.213c1.02,0,1.16,1.716,1.16,3.782s-.14,3.78-1.16,3.78S67.838,7.058,67.838,5,67.98,1.213,69,1.213" transform="translate(0)" fill="#fff"/><polygon points="73.853 0.136 73.853 9.852 75.139 9.852 75.139 5.431 77.127 5.431 77.127 4.31 75.139 4.31 75.139 1.259 77.348 1.259 77.348 0.136 73.853 0.136" fill="#fff"/><path d="M70.477,52.052l6.892-25.994H68.313L63.647,45.434a30.288,30.288,0,0,1,6.83,6.618" transform="translate(0)" fill="#fff"/><path d="M12.611,53.547a10.141,10.141,0,0,1-.385-3.486v-24H.209L.192,43.984C5,50.652,9.88,53.324,12.611,53.547" transform="translate(0)" fill="#fff"/><path d="M31.962,48.056l.016.055a27.971,27.971,0,0,1,3.586-1.769,45.866,45.866,0,0,1,5.863-2.772L37.21,26.058H22.682V49.615a16.259,16.259,0,0,1-.118,2.783,57.943,57.943,0,0,0,9.4-4.277Z" transform="translate(0)" fill="#fff"/><path d="M17.127,56.973C10.548,56.337,4.315,52.35.209,45.7v5.709C.209,56,1,59.638,5.094,62.327,8.072,64.3,12.681,65.1,16.26,65.1c4.092,0,8.166-.687,11.483-3.277a10.6,10.6,0,0,0,4.083-7.855c-3.624,1.529-9.475,3.511-14.7,3" transform="translate(0)" fill="#fff"/><path d="M52.247,44.978,57.18,64.517h9.955l2.917-10.878c-2.458-3.32-7.935-10.736-17.805-8.661" transform="translate(0)" fill="#fff"/><path d="M52.593,41.415a19.769,19.769,0,0,1,9.233,2.812L57.18,26.057H47.9L43.984,42.663a23.181,23.181,0,0,1,8.609-1.248" transform="translate(0)" fill="#fff"/><path d="M35.3,52.346H35.29c-.163.081-.857.447-1.928.939L36.37,64.516H46.715L51.28,45.207c-.331.089-.665.184-1.005.3-5.3,1.694-10.074,4.27-14.98,6.843" transform="translate(0)" fill="#fff"/><polygon points="6.354 12.969 5.76 17.094 5.41 20.213 5.388 20.213 4.325 12.969 3.318 12.969 2.647 17.016 2.26 20.276 2.235 20.276 2.182 19.556 1.266 12.969 0 12.969 1.679 22.685 2.738 22.685 3.421 18.64 3.513 18.086 3.798 15.472 3.826 15.472 3.837 15.714 4.133 18.162 4.869 22.685 5.904 22.685 7.607 12.969 6.354 12.969" fill="#fff"/><rect x="8.422" y="12.968" width="1.283" height="9.717" fill="#fff"/><path d="M14.286,14.461a1.751,1.751,0,0,0-1.093-.417A1.173,1.173,0,0,0,12.037,15.3a1.581,1.581,0,0,0,.363,1.058l.986,1.075a3.628,3.628,0,0,1,1.376,2.852,2.333,2.333,0,0,1-2.284,2.539,2.243,2.243,0,0,1-1.415-.467v-1.3a2.067,2.067,0,0,0,1.273.5c.8,0,1.141-.632,1.141-1.355,0-1.938-2.723-2.324-2.723-4.885a2.2,2.2,0,0,1,2.179-2.489,2.59,2.59,0,0,1,1.364.321Z" transform="translate(0)" fill="#fff"/><path d="M19.483,14.291a1.905,1.905,0,0,0-.83-.247c-1.812,0-1.823,2.636-1.823,3.85,0,1.287.1,3.715,1.875,3.715a1.614,1.614,0,0,0,.778-.193v1.133a1.843,1.843,0,0,1-1.038.272c-2.638,0-2.988-2.8-2.988-4.84,0-1.947.247-5.147,2.9-5.147a2.02,2.02,0,0,1,1.13.283Z" transform="translate(0)" fill="#fff"/><path d="M22.633,12.835c-2.507,0-2.53,3.237-2.53,4.99s.023,5,2.53,5,2.529-3.241,2.529-5-.026-4.99-2.529-4.99m0,1.209c1.019,0,1.159,1.719,1.159,3.781s-.14,3.785-1.159,3.785-1.162-1.717-1.162-3.785.142-3.781,1.162-3.781" transform="translate(0)" fill="#fff"/><polygon points="27.272 15.855 27.464 19.116 27.464 22.685 26.182 22.685 26.182 12.969 27.412 12.969 29.704 20.354 29.73 20.329 29.424 16.439 29.424 12.969 30.705 12.969 30.705 22.685 29.512 22.685 27.222 15.199 27.195 15.226 27.272 15.855" fill="#fff"/><path d="M35.277,14.461a1.749,1.749,0,0,0-1.093-.417A1.174,1.174,0,0,0,33.027,15.3a1.567,1.567,0,0,0,.364,1.058l.99,1.075a3.628,3.628,0,0,1,1.37,2.852,2.33,2.33,0,0,1-2.282,2.539,2.247,2.247,0,0,1-1.415-.467v-1.3a2.072,2.072,0,0,0,1.272.5c.806,0,1.142-.632,1.142-1.355,0-1.938-2.723-2.324-2.723-4.885a2.2,2.2,0,0,1,2.18-2.489,2.584,2.584,0,0,1,1.363.321Z" transform="translate(0)" fill="#fff"/><rect x="36.762" y="12.968" width="1.281" height="9.717" fill="#fff"/><polygon points="40.659 15.855 40.849 19.116 40.849 22.685 39.568 22.685 39.568 12.969 40.8 12.969 43.09 20.354 43.12 20.329 42.809 16.439 42.809 12.969 44.093 12.969 44.093 22.685 42.899 22.685 40.605 15.199 40.581 15.226 40.659 15.855" fill="#fff"/><path d="M51.638,14.461a1.749,1.749,0,0,0-1.094-.417A1.173,1.173,0,0,0,49.389,15.3a1.557,1.557,0,0,0,.365,1.058l.984,1.075a3.624,3.624,0,0,1,1.376,2.852,2.332,2.332,0,0,1-2.284,2.539,2.249,2.249,0,0,1-1.415-.467v-1.3a2.067,2.067,0,0,0,1.273.5c.8,0,1.141-.632,1.141-1.355,0-1.938-2.721-2.324-2.721-4.885a2.2,2.2,0,0,1,2.179-2.489,2.588,2.588,0,0,1,1.363.321Z" transform="translate(0)" fill="#fff"/><polygon points="53.738 12.969 54.919 17.466 54.948 17.466 55.152 16.218 55.977 12.969 57.36 12.969 55.55 18.498 55.55 22.685 54.267 22.685 54.267 18.498 52.339 12.969 53.738 12.969" fill="#fff"/><path d="M61.223,14.461a1.753,1.753,0,0,0-1.093-.417A1.174,1.174,0,0,0,58.975,15.3a1.56,1.56,0,0,0,.362,1.058l.988,1.075A3.62,3.62,0,0,1,61.7,20.285a2.329,2.329,0,0,1-2.279,2.539A2.243,2.243,0,0,1,58,22.357v-1.3a2.065,2.065,0,0,0,1.274.5c.8,0,1.14-.632,1.14-1.355,0-1.938-2.724-2.324-2.724-4.885a2.2,2.2,0,0,1,2.179-2.489,2.6,2.6,0,0,1,1.367.321Z" transform="translate(0)" fill="#fff"/><polygon points="66.253 12.969 66.253 14.091 64.789 14.091 64.789 22.685 63.507 22.685 63.507 14.091 61.983 14.091 61.983 12.969 66.253 12.969" fill="#fff"/><polygon points="70.455 12.969 70.455 14.091 68.268 14.091 68.268 17.142 70.223 17.142 70.223 18.265 68.268 18.265 68.268 21.564 70.455 21.564 70.455 22.685 66.987 22.685 66.987 12.969 70.455 12.969" fill="#fff"/><polygon points="75.595 12.969 74.758 17.248 74.367 19.58 74.326 19.98 74.303 19.98 72.916 12.969 71.807 12.969 71.002 22.685 72.231 22.685 72.611 15.984 72.634 15.984 73.889 22.685 74.785 22.685 75.794 17.376 76.009 15.984 76.035 15.984 76.063 17.261 76.141 19.063 76.374 22.685 77.643 22.685 76.734 12.969 75.595 12.969" fill="#fff"/></svg>